<svg id="svg" version="1.1" xmlns="http://www.w3.org/2000/svg" xmlns:xlink="http://www.w3.org/1999/xlink" width="400" height="175.99999999999997" viewBox="0, 0, 400,175.99999999999997"><g id="svgg"><path id="path0" d="M49.241 55.238 C 49.199 55.310,49.111 55.742,49.045 56.197 L 48.925 57.025 48.010 57.077 L 47.095 57.130 47.042 58.055 L 46.989 58.979 46.308 58.979 C 45.061 58.979,45.070 58.961,45.070 61.275 C 45.070 63.281,45.056 63.361,44.674 63.477 C 42.666 64.086,42.566 68.838,44.562 68.838 L 45.070 68.838 45.070 71.084 C 45.070 74.268,45.270 74.816,46.429 74.821 C 46.975 74.824,46.999 74.855,47.113 75.711 C 47.262 76.837,47.453 76.937,49.460 76.937 L 51.056 76.937 51.059 77.685 C 51.064 79.006,50.882 78.955,55.790 79.019 C 60.921 79.086,60.915 79.087,60.915 77.811 L 60.915 76.937 62.729 76.937 C 64.814 76.937,64.956 76.860,64.985 75.713 C 64.996 75.272,65.042 75.051,65.086 75.220 C 65.130 75.390,65.233 75.528,65.313 75.528 C 65.394 75.528,65.423 75.670,65.378 75.843 C 65.272 76.247,65.775 76.682,66.505 76.820 C 67.209 76.953,67.251 76.747,66.582 76.451 C 66.152 76.261,65.131 74.802,65.460 74.848 C 65.840 74.903,66.205 74.802,66.121 74.666 C 66.067 74.580,66.141 74.464,66.285 74.408 C 66.429 74.353,66.535 74.127,66.521 73.906 C 66.507 73.685,66.621 73.107,66.775 72.623 C 66.929 72.139,67.099 71.149,67.154 70.423 C 67.263 68.970,67.448 68.052,67.744 67.500 C 67.850 67.301,67.967 66.921,68.002 66.654 C 68.038 66.388,68.291 65.890,68.564 65.547 C 69.534 64.332,68.960 61.429,67.704 61.193 C 67.101 61.080,67.077 61.047,67.077 60.313 C 67.077 59.283,66.340 57.636,65.810 57.481 C 64.906 57.217,64.449 56.946,64.279 56.573 C 64.181 56.357,63.879 56.040,63.608 55.867 C 63.338 55.695,63.053 55.453,62.975 55.330 C 62.818 55.079,49.384 54.989,49.241 55.238 M337.148 55.634 C 337.359 55.771,337.363 55.805,337.167 55.807 C 337.020 55.809,337.142 56.037,337.474 56.382 C 337.777 56.697,338.138 57.113,338.276 57.306 C 338.645 57.822,338.784 57.534,338.563 56.714 C 338.359 55.956,337.831 55.456,337.241 55.460 C 336.946 55.463,336.930 55.493,337.148 55.634 M338.670 59.365 C 338.814 61.489,338.908 61.560,338.908 59.547 C 338.908 58.665,338.830 57.895,338.734 57.835 C 338.620 57.765,338.598 58.298,338.670 59.365 M71.831 61.286 C 71.831 61.394,71.708 61.434,71.558 61.376 C 71.401 61.316,71.330 61.346,71.392 61.446 C 71.451 61.541,71.411 61.620,71.303 61.620 C 71.195 61.620,71.158 61.704,71.222 61.807 C 71.299 61.932,71.440 61.902,71.642 61.719 C 71.810 61.568,72.044 61.444,72.163 61.444 C 72.282 61.444,72.331 61.364,72.271 61.268 C 72.125 61.031,71.831 61.044,71.831 61.286 M103.345 61.268 C 103.132 61.406,103.157 61.439,103.477 61.441 C 103.695 61.442,103.873 61.364,103.873 61.268 C 103.873 61.047,103.686 61.047,103.345 61.268 M124.787 61.297 C 125.009 61.411,125.150 61.609,125.101 61.738 C 124.987 62.036,125.175 62.028,125.584 61.718 C 125.888 61.488,125.884 61.469,125.496 61.357 C 124.588 61.095,124.357 61.076,124.787 61.297 M126.144 61.268 C 126.204 61.364,126.447 61.444,126.683 61.444 C 126.919 61.444,127.113 61.364,127.113 61.268 C 127.113 61.171,126.870 61.092,126.574 61.092 C 126.260 61.092,126.081 61.165,126.144 61.268 M150.484 61.273 C 150.702 61.361,150.887 61.574,150.894 61.746 C 150.903 61.940,150.943 61.974,150.999 61.834 C 151.119 61.536,150.737 61.089,150.375 61.103 C 150.181 61.110,150.216 61.165,150.484 61.273 M157.306 61.268 C 157.246 61.364,157.262 61.445,157.340 61.446 C 157.418 61.448,157.366 61.523,157.223 61.613 C 157.081 61.703,157.015 61.827,157.077 61.889 C 157.138 61.951,157.347 61.843,157.541 61.649 C 157.735 61.455,157.847 61.251,157.790 61.194 C 157.635 61.039,157.428 61.071,157.306 61.268 M206.954 61.472 C 207.790 61.906,208.275 62.307,208.275 62.566 C 208.275 62.670,208.158 62.588,208.016 62.385 C 207.783 62.053,207.042 61.697,207.042 61.918 C 207.042 62.115,208.153 63.028,208.393 63.028 C 209.057 63.028,208.309 61.906,207.331 61.433 C 206.384 60.976,206.062 61.009,206.954 61.472 M235.188 61.488 C 234.953 61.927,235.149 62.124,235.433 61.735 C 235.554 61.571,235.889 61.367,236.180 61.281 C 236.703 61.127,236.702 61.126,236.038 61.137 C 235.566 61.146,235.315 61.249,235.188 61.488 M244.366 61.268 C 244.711 61.490,245.070 61.490,245.070 61.268 C 245.070 61.171,244.853 61.093,244.586 61.094 C 244.209 61.096,244.160 61.135,244.366 61.268 M264.877 61.268 C 264.937 61.364,265.139 61.444,265.327 61.444 C 265.515 61.444,265.669 61.364,265.669 61.268 C 265.669 61.171,265.466 61.092,265.218 61.092 C 264.963 61.092,264.815 61.168,264.877 61.268 M273.181 61.209 C 273.116 61.273,273.068 61.491,273.075 61.693 C 273.085 62.030,273.099 62.026,273.254 61.638 C 273.427 61.207,273.391 60.999,273.181 61.209 M292.077 61.172 C 292.077 61.216,292.276 61.450,292.518 61.692 C 292.954 62.128,293.057 62.083,292.851 61.547 C 292.793 61.394,292.674 61.313,292.587 61.367 C 292.501 61.421,292.430 61.381,292.430 61.278 C 292.430 61.175,292.350 61.092,292.254 61.092 C 292.157 61.092,292.077 61.128,292.077 61.172 M319.717 61.268 C 320.055 61.350,320.368 61.381,320.412 61.337 C 320.456 61.293,320.593 61.437,320.715 61.658 C 320.877 61.949,320.940 61.981,320.944 61.773 C 320.954 61.352,320.600 61.154,319.806 61.135 L 319.102 61.119 319.717 61.268 M350.660 61.414 C 351.021 61.792,351.108 61.782,350.954 61.381 C 350.893 61.222,350.732 61.092,350.597 61.092 C 350.411 61.092,350.426 61.169,350.660 61.414 M357.209 61.461 C 357.117 61.632,357.047 61.996,357.052 62.268 C 357.062 62.750,357.068 62.746,357.272 62.148 C 357.431 61.682,357.632 61.481,358.099 61.324 L 358.715 61.115 358.045 61.132 C 357.597 61.144,357.321 61.252,357.209 61.461 M375.528 61.268 C 375.528 61.364,375.642 61.444,375.782 61.444 C 375.921 61.444,376.085 61.364,376.144 61.268 C 376.204 61.171,376.090 61.092,375.891 61.092 C 375.691 61.092,375.528 61.171,375.528 61.268 M104.149 61.425 C 104.095 61.512,104.181 61.633,104.340 61.693 C 104.682 61.825,104.834 61.717,104.673 61.455 C 104.531 61.226,104.280 61.212,104.149 61.425 M178.627 61.737 C 178.789 62.412,178.873 62.475,178.873 61.924 C 178.873 61.671,178.791 61.414,178.690 61.351 C 178.570 61.277,178.548 61.410,178.627 61.737 M213.334 61.373 C 213.276 61.431,213.276 61.602,213.334 61.754 C 213.404 61.936,213.370 61.986,213.234 61.902 C 213.100 61.819,213.028 61.914,213.028 62.173 C 213.028 62.719,213.408 62.334,213.476 61.720 C 213.528 61.247,213.508 61.199,213.334 61.373 M243.530 61.385 C 243.409 61.433,243.310 61.550,243.310 61.645 C 243.310 61.739,243.409 61.766,243.530 61.705 C 243.651 61.644,243.601 61.715,243.420 61.862 C 243.209 62.034,243.132 62.242,243.207 62.438 C 243.306 62.696,243.379 62.655,243.668 62.181 C 244.150 61.388,244.109 61.153,243.530 61.385 M265.969 61.378 C 265.905 61.443,265.996 61.623,266.172 61.778 C 266.349 61.933,266.560 62.298,266.641 62.588 C 266.773 63.060,266.796 63.074,266.857 62.724 C 266.976 62.037,266.314 61.033,265.969 61.378 M376.374 61.384 C 376.333 61.465,376.450 61.809,376.634 62.148 L 376.970 62.764 376.862 62.153 C 376.750 61.519,376.503 61.129,376.374 61.384 M188.086 61.705 C 187.531 62.093,187.267 62.949,187.691 62.981 C 187.975 63.002,189.085 62.156,189.085 61.918 C 189.085 61.675,188.323 62.072,188.081 62.441 C 187.746 62.952,187.565 62.860,187.852 62.325 C 187.964 62.115,188.307 61.834,188.614 61.700 C 189.032 61.519,189.083 61.456,188.816 61.451 C 188.619 61.447,188.291 61.561,188.086 61.705 M90.783 62.148 C 90.922 62.907,91.022 63.050,91.018 62.485 C 91.017 62.251,90.938 61.941,90.843 61.796 C 90.721 61.610,90.703 61.714,90.783 62.148 M104.590 62.093 C 104.630 62.551,104.905 62.938,104.917 62.554 C 104.924 62.342,104.850 62.120,104.754 62.060 C 104.657 62.000,104.583 62.015,104.590 62.093 M272.535 62.500 L 272.095 62.940 272.506 62.998 C 273.022 63.071,273.107 62.986,273.034 62.471 L 272.975 62.060 272.535 62.500 M57.294 63.639 C 57.420 64.310,57.954 64.789,58.578 64.789 C 58.973 64.789,58.979 64.820,58.979 66.901 L 58.979 69.014 56.459 69.014 L 53.939 69.014 53.466 68.520 C 53.027 68.062,52.993 67.917,52.993 66.496 L 52.993 64.965 53.779 64.965 C 54.680 64.965,54.930 64.681,54.930 63.656 L 54.930 63.028 56.054 63.028 L 57.179 63.028 57.294 63.639 M185.257 63.290 C 185.137 63.426,185.101 63.576,185.178 63.624 C 185.254 63.671,185.413 63.556,185.530 63.369 C 185.774 62.977,185.582 62.921,185.257 63.290 M268.134 63.292 C 268.712 63.623,268.998 63.627,268.564 63.298 C 268.376 63.156,268.103 63.040,267.958 63.040 C 267.805 63.040,267.879 63.146,268.134 63.292 M269.821 63.160 C 269.748 63.233,269.616 63.292,269.528 63.292 C 269.439 63.292,269.359 63.371,269.351 63.468 C 269.318 63.860,268.967 64.114,268.793 63.873 C 268.676 63.710,268.659 63.737,268.733 63.967 C 268.791 64.144,268.840 64.461,268.842 64.671 C 268.845 64.939,268.948 64.828,269.188 64.299 C 269.423 63.780,269.711 63.466,270.109 63.293 C 270.548 63.102,270.599 63.040,270.320 63.035 C 270.118 63.031,269.894 63.088,269.821 63.160 M300.299 63.140 C 300.238 63.201,300.025 63.261,299.827 63.272 C 299.629 63.283,299.475 63.363,299.485 63.449 C 299.494 63.535,299.398 63.669,299.272 63.747 C 299.145 63.825,299.099 63.946,299.168 64.015 C 299.237 64.084,299.433 64.017,299.603 63.865 C 299.773 63.713,300.189 63.469,300.528 63.323 C 300.990 63.124,301.052 63.053,300.778 63.043 C 300.576 63.035,300.360 63.078,300.299 63.140 M322.943 63.345 C 323.107 63.525,323.188 63.725,323.124 63.790 C 323.059 63.854,323.297 64.188,323.651 64.532 C 324.006 64.876,324.298 65.055,324.302 64.929 C 324.305 64.802,324.461 64.885,324.654 65.116 C 324.844 65.345,325.000 65.454,325.000 65.358 C 325.000 65.262,324.889 65.092,324.753 64.979 C 324.617 64.866,324.459 64.586,324.402 64.357 C 324.337 64.099,323.980 63.762,323.471 63.478 C 322.850 63.130,322.719 63.098,322.943 63.345 M353.879 63.429 C 353.369 63.688,353.005 64.695,353.312 65.002 C 353.458 65.148,353.541 65.112,353.630 64.862 C 353.807 64.368,354.258 63.889,354.710 63.717 C 354.927 63.633,355.106 63.484,355.106 63.385 C 355.106 63.137,354.406 63.162,353.879 63.429 M93.600 63.555 C 94.016 63.723,94.313 64.085,94.035 64.085 C 93.938 64.085,93.810 64.005,93.750 63.908 C 93.690 63.812,93.547 63.733,93.432 63.733 C 93.316 63.734,93.430 63.912,93.684 64.129 C 93.939 64.347,94.199 64.677,94.262 64.862 C 94.356 65.136,94.418 65.156,94.592 64.972 C 94.757 64.797,94.758 64.727,94.596 64.667 C 94.481 64.625,94.427 64.482,94.478 64.351 C 94.595 64.045,93.934 63.377,93.530 63.391 C 93.284 63.400,93.298 63.433,93.600 63.555 M154.360 63.584 C 154.042 63.700,153.729 64.056,153.443 64.627 C 152.914 65.679,152.965 65.731,153.593 64.782 C 153.852 64.391,154.318 63.916,154.629 63.726 C 155.236 63.356,155.133 63.301,154.360 63.584 M354.245 63.626 C 354.013 63.754,353.719 64.049,353.591 64.280 C 353.462 64.511,353.355 64.598,353.351 64.473 C 353.343 64.177,354.142 63.378,354.437 63.387 C 354.563 63.390,354.476 63.498,354.245 63.626 M154.567 64.000 C 154.178 64.205,153.544 65.141,153.795 65.141 C 153.933 65.141,155.149 63.893,155.079 63.824 C 155.045 63.791,154.815 63.870,154.567 64.000 M243.040 74.032 C 243.040 79.454,243.062 81.698,243.090 79.018 C 243.117 76.338,243.117 71.901,243.090 69.159 C 243.062 66.416,243.040 68.609,243.040 74.032 M181.866 65.311 C 181.866 65.404,182.023 65.564,182.214 65.667 C 182.406 65.769,182.636 66.109,182.727 66.421 L 182.891 66.989 182.907 66.417 C 182.915 66.103,182.839 65.845,182.736 65.845 C 182.634 65.845,182.596 65.770,182.653 65.678 C 182.710 65.586,182.601 65.427,182.411 65.326 C 181.983 65.097,181.866 65.093,181.866 65.311 M183.528 65.391 C 183.181 65.645,182.991 67.341,183.334 67.129 C 183.419 67.076,183.446 66.767,183.394 66.443 C 183.341 66.118,183.352 65.868,183.418 65.886 C 183.588 65.934,184.331 65.436,184.331 65.275 C 184.331 65.058,183.897 65.121,183.528 65.391 M210.996 65.505 C 210.863 65.721,210.849 65.707,211.490 65.983 C 211.758 66.098,212.066 66.387,212.174 66.625 C 212.490 67.318,212.860 67.350,212.740 66.674 C 212.573 65.734,211.358 64.920,210.996 65.505 M172.535 67.518 C 172.763 67.760,172.975 67.958,173.006 67.958 C 173.038 67.958,173.063 67.760,173.063 67.518 C 173.063 67.158,172.977 67.077,172.593 67.077 L 172.122 67.077 172.535 67.518 M194.198 67.498 C 194.110 67.729,193.795 68.025,193.498 68.157 C 193.201 68.288,192.958 68.495,192.958 68.617 C 192.958 68.739,192.865 68.838,192.752 68.838 C 192.639 68.838,192.582 68.873,192.624 68.915 C 193.064 69.355,194.718 68.106,194.718 67.333 C 194.718 66.927,194.373 67.036,194.198 67.498 M201.352 67.477 C 201.281 67.749,201.306 68.118,201.409 68.311 C 201.593 68.654,201.797 68.731,202.993 68.904 L 203.609 68.993 202.844 68.652 C 202.423 68.464,201.995 68.362,201.893 68.425 C 201.781 68.494,201.758 68.456,201.837 68.329 C 201.908 68.213,201.889 68.023,201.795 67.906 C 201.700 67.789,201.590 67.535,201.551 67.342 C 201.492 67.046,201.460 67.067,201.352 67.477 M259.683 67.326 C 259.683 67.463,259.941 67.780,260.255 68.031 C 260.570 68.282,260.961 68.615,261.124 68.769 C 261.287 68.924,261.525 69.009,261.652 68.959 C 261.812 68.894,261.795 68.862,261.595 68.852 C 261.244 68.835,261.092 68.480,261.092 67.679 C 261.092 67.095,261.072 67.077,260.387 67.077 C 259.898 67.077,259.683 67.153,259.683 67.326 M285.771 67.517 C 285.985 67.985,287.119 68.756,287.302 68.557 C 287.363 68.491,287.312 68.402,287.191 68.359 C 287.069 68.315,287.017 68.203,287.075 68.109 C 287.384 67.610,286.967 67.077,286.268 67.077 C 285.589 67.077,285.576 67.089,285.771 67.517 M297.338 67.210 C 297.327 67.282,297.327 67.401,297.338 67.474 C 297.350 67.546,297.280 67.606,297.183 67.606 C 297.086 67.606,297.007 67.735,297.007 67.893 C 297.007 68.107,297.098 68.065,297.359 67.734 C 297.553 67.487,297.711 67.239,297.711 67.182 C 297.711 67.028,297.363 67.054,297.338 67.210 M370.953 67.532 C 370.955 67.718,371.037 67.989,371.135 68.134 C 371.265 68.327,371.282 68.255,371.195 67.870 C 371.051 67.222,370.950 67.082,370.953 67.532 M351.761 67.782 C 351.567 67.975,351.411 68.233,351.414 68.354 C 351.417 68.479,351.495 68.444,351.595 68.272 C 351.692 68.106,351.945 67.849,352.157 67.700 C 352.369 67.551,352.446 67.430,352.328 67.430 C 352.210 67.430,351.954 67.588,351.761 67.782 M95.104 68.354 C 95.157 69.083,95.174 69.102,95.775 69.094 C 96.128 69.090,96.482 69.203,96.605 69.358 C 97.032 69.899,96.819 69.366,96.303 68.602 C 95.850 67.930,95.469 67.606,95.134 67.606 C 95.088 67.606,95.075 67.942,95.104 68.354 M162.700 67.856 C 162.687 68.042,162.545 68.339,162.385 68.516 C 162.224 68.693,162.175 68.838,162.275 68.838 C 162.596 68.838,162.882 68.342,162.802 67.923 C 162.741 67.606,162.719 67.592,162.700 67.856 M278.721 67.841 C 278.708 68.020,278.519 68.314,278.301 68.496 C 277.987 68.758,277.964 68.828,278.191 68.832 C 278.603 68.841,278.913 68.395,278.823 67.923 C 278.767 67.633,278.738 67.610,278.721 67.841 M350.814 68.156 C 350.667 68.890,350.810 69.032,350.968 68.310 C 351.035 68.006,351.053 67.720,351.008 67.675 C 350.963 67.630,350.876 67.846,350.814 68.156 M352.345 67.815 C 351.963 68.000,351.451 68.939,351.633 69.121 C 351.685 69.174,351.786 69.036,351.856 68.815 C 352.001 68.357,352.356 67.958,352.618 67.958 C 352.716 67.958,352.845 67.879,352.905 67.782 C 353.041 67.562,352.844 67.574,352.345 67.815 M308.242 68.354 C 307.982 68.620,307.868 68.838,307.988 68.838 C 308.352 68.838,308.845 68.391,308.778 68.122 C 308.732 67.937,308.588 67.999,308.242 68.354 M85.035 68.310 C 85.035 68.407,85.119 68.486,85.222 68.486 C 85.324 68.486,85.359 68.565,85.299 68.662 C 85.239 68.759,85.274 68.838,85.377 68.838 C 85.593 68.838,85.602 68.791,85.457 68.412 C 85.339 68.105,85.035 68.031,85.035 68.310 M173.075 68.430 C 173.064 68.802,173.665 69.176,173.898 68.942 C 173.956 68.885,173.868 68.838,173.703 68.838 C 173.539 68.838,173.332 68.660,173.245 68.442 L 173.086 68.046 173.075 68.430 M126.875 68.691 C 126.815 68.917,126.761 72.271,126.755 76.144 C 126.743 84.587,126.761 84.450,125.509 85.720 C 125.256 85.977,124.993 86.383,124.925 86.623 C 124.857 86.863,124.865 86.979,124.944 86.880 C 125.023 86.781,125.302 86.607,125.563 86.492 C 126.796 85.951,126.934 84.900,126.935 76.027 C 126.936 71.571,127.001 68.845,127.107 68.809 C 127.203 68.776,127.214 68.648,127.131 68.515 C 127.023 68.341,126.957 68.386,126.875 68.691 M315.395 68.756 C 315.583 68.898,315.939 69.003,316.187 68.990 L 316.637 68.966 316.197 68.887 C 315.955 68.844,315.682 68.736,315.590 68.647 C 315.498 68.558,315.339 68.488,315.238 68.492 C 315.136 68.495,315.207 68.613,315.395 68.756 M80.898 69.009 C 75.026 69.155,75.308 69.077,75.137 70.599 C 75.093 70.996,74.994 71.047,74.120 71.127 L 73.151 71.215 73.027 73.063 C 72.953 74.159,72.755 75.336,72.542 75.952 C 71.787 78.139,72.068 79.379,73.682 80.986 L 74.478 81.778 75.928 81.769 C 76.894 81.764,77.655 81.653,78.213 81.437 L 79.049 81.114 79.049 80.091 L 79.049 79.068 79.974 79.014 L 80.898 78.961 80.951 77.949 L 81.003 76.937 82.051 76.937 L 83.099 76.937 83.099 77.694 C 83.099 78.589,83.329 78.872,84.058 78.876 C 84.928 78.880,85.104 79.095,85.089 80.129 C 85.076 80.963,85.100 81.024,85.319 80.725 C 85.453 80.541,85.563 80.467,85.563 80.561 C 85.563 80.655,85.860 80.721,86.224 80.709 C 86.587 80.696,87.367 80.674,87.957 80.659 C 89.470 80.623,90.005 80.046,90.351 78.081 C 90.686 76.178,90.711 75.081,90.437 74.285 C 89.825 72.509,89.050 70.780,88.864 70.777 C 88.792 70.776,88.732 70.615,88.732 70.421 C 88.732 70.226,88.565 69.929,88.361 69.761 C 88.156 69.592,87.889 69.359,87.766 69.243 C 87.422 68.917,86.229 68.877,80.898 69.009 M161.004 69.014 C 161.063 69.111,161.309 69.190,161.550 69.190 C 161.791 69.190,162.188 69.390,162.433 69.635 C 162.866 70.068,162.876 70.070,162.821 69.695 C 162.789 69.479,162.619 69.289,162.433 69.262 C 162.251 69.236,162.017 69.130,161.914 69.026 C 161.675 68.788,160.857 68.777,161.004 69.014 M361.312 68.959 C 361.481 69.004,361.758 69.004,361.928 68.959 C 362.097 68.915,361.959 68.879,361.620 68.879 C 361.281 68.879,361.142 68.915,361.312 68.959 M28.944 69.162 C 27.694 69.297,27.339 69.535,27.189 70.337 L 27.079 70.920 25.379 71.034 C 24.444 71.096,23.561 71.163,23.415 71.183 C 23.227 71.208,23.136 71.482,23.098 72.141 L 23.045 73.063 22.106 73.063 C 21.076 73.063,20.958 73.203,20.953 74.428 C 20.951 74.966,20.913 75.000,20.323 75.000 C 18.931 75.000,19.014 74.560,19.014 81.948 C 19.014 89.321,18.973 89.085,20.259 89.085 C 20.935 89.085,20.951 89.099,20.951 89.712 C 20.951 90.763,21.193 91.021,22.180 91.021 L 23.045 91.021 23.098 91.945 L 23.151 92.870 25.132 92.919 L 27.113 92.969 27.113 93.734 C 27.113 94.857,27.343 94.972,29.736 95.043 C 33.561 95.156,34.650 94.864,34.808 93.683 L 34.906 92.958 36.709 92.958 C 38.744 92.958,38.881 92.886,39.035 91.732 C 39.127 91.051,39.157 91.021,39.768 91.018 C 40.796 91.014,40.918 90.845,40.991 89.313 C 41.066 87.727,41.541 86.972,42.465 86.972 L 42.963 86.972 42.917 82.086 L 42.870 77.201 42.441 77.140 C 41.557 77.015,41.067 76.199,40.993 74.729 C 40.917 73.241,40.791 73.070,39.756 73.066 C 39.122 73.063,39.103 73.044,38.988 72.277 C 38.830 71.225,38.757 71.187,36.586 71.043 L 34.704 70.918 34.594 70.418 C 34.361 69.357,32.001 68.832,28.944 69.162 M252.153 69.515 C 252.031 69.791,251.734 70.106,251.494 70.216 C 250.973 70.453,250.918 70.775,251.399 70.775 C 251.870 70.775,252.583 70.083,252.715 69.498 C 252.863 68.840,252.446 68.853,252.153 69.515 M317.323 69.584 C 317.467 70.302,317.726 70.561,318.444 70.705 C 319.145 70.845,319.203 70.554,318.558 70.132 C 318.307 69.967,318.032 69.649,317.946 69.423 C 317.693 68.757,317.184 68.888,317.323 69.584 M338.807 72.535 C 338.807 74.520,338.832 75.332,338.864 74.340 C 338.895 73.347,338.895 71.723,338.864 70.731 C 338.832 69.738,338.807 70.550,338.807 72.535 M360.316 69.217 C 360.390 69.338,360.365 69.373,360.253 69.304 C 360.150 69.240,359.820 69.432,359.522 69.731 C 358.724 70.528,358.821 70.823,359.743 70.403 C 360.328 70.137,360.840 69.014,360.377 69.014 C 360.274 69.014,360.247 69.106,360.316 69.217 M326.459 69.586 C 326.673 69.804,326.875 69.924,326.907 69.852 C 326.981 69.685,326.491 69.190,326.251 69.190 C 326.151 69.190,326.244 69.368,326.459 69.586 M204.984 70.511 C 204.985 71.092,205.018 71.308,205.057 70.992 C 205.096 70.675,205.096 70.200,205.055 69.935 C 205.015 69.671,204.983 69.930,204.984 70.511 M182.667 70.219 C 182.610 70.400,182.386 70.633,182.170 70.738 C 181.874 70.881,181.850 70.930,182.074 70.939 C 182.236 70.945,182.494 70.826,182.646 70.674 C 182.897 70.423,182.922 70.635,182.920 73.007 C 182.918 74.757,182.861 75.529,182.746 75.352 C 182.596 75.119,182.575 75.120,182.573 75.361 C 182.572 75.511,182.645 75.709,182.737 75.801 C 182.828 75.893,182.932 76.444,182.968 77.025 C 183.003 77.606,183.047 76.283,183.065 74.086 C 183.096 70.450,182.973 69.256,182.667 70.219 M178.976 71.357 C 179.150 71.454,179.408 71.449,179.640 71.342 C 179.964 71.193,179.924 71.170,179.354 71.182 C 178.859 71.193,178.763 71.237,178.976 71.357 M180.025 71.467 C 179.896 71.675,180.225 71.887,180.456 71.744 C 180.554 71.683,180.586 71.751,180.529 71.899 C 180.474 72.044,180.512 72.305,180.614 72.481 C 180.773 72.754,180.800 72.724,180.805 72.262 C 180.812 71.548,180.299 71.024,180.025 71.467 M263.028 72.156 C 263.028 72.408,263.497 72.936,263.660 72.868 C 263.748 72.830,263.642 72.624,263.424 72.409 C 263.206 72.195,263.028 72.081,263.028 72.156 M145.166 73.227 C 145.046 73.422,145.323 73.632,145.486 73.469 C 145.653 73.302,145.622 73.063,145.433 73.063 C 145.342 73.063,145.222 73.137,145.166 73.227 M150.943 73.327 C 151.088 73.473,151.312 73.594,151.440 73.597 C 152.961 73.634,153.136 77.558,151.661 78.531 C 151.171 78.853,151.165 78.871,151.548 78.872 C 152.516 78.875,152.817 78.197,152.817 76.015 C 152.817 73.680,152.601 73.133,151.745 73.304 C 151.471 73.359,151.199 73.327,151.141 73.234 C 151.083 73.140,150.955 73.063,150.857 73.063 C 150.759 73.063,150.798 73.182,150.943 73.327 M153.169 73.558 C 153.169 74.311,153.545 74.681,154.453 74.818 C 155.331 74.952,155.435 74.748,154.584 74.561 C 154.205 74.478,153.982 74.264,153.750 73.760 C 153.375 72.947,153.169 72.875,153.169 73.558 M155.634 75.231 C 155.634 75.557,156.291 76.223,156.806 76.419 C 157.044 76.510,157.190 76.663,157.130 76.760 C 157.071 76.857,157.157 76.937,157.323 76.937 C 157.604 76.937,157.605 76.915,157.334 76.615 C 157.173 76.438,157.042 76.002,157.042 75.646 C 157.042 75.010,157.032 75.000,156.338 75.000 C 155.874 75.000,155.634 75.079,155.634 75.231 M181.426 75.176 C 181.911 75.384,182.083 75.384,181.954 75.176 C 181.894 75.079,181.672 75.006,181.460 75.012 C 181.088 75.024,181.087 75.030,181.426 75.176 M290.759 75.173 C 290.692 75.282,290.869 75.305,291.232 75.236 C 292.011 75.088,292.078 75.000,291.413 75.000 C 291.112 75.000,290.818 75.078,290.759 75.173 M294.190 75.176 C 294.822 75.379,295.108 75.379,294.982 75.176 C 294.923 75.079,294.621 75.008,294.312 75.018 C 293.775 75.034,293.770 75.041,294.190 75.176 M289.356 75.340 C 289.226 75.551,289.557 75.759,289.792 75.614 C 289.988 75.493,289.859 75.176,289.613 75.176 C 289.527 75.176,289.412 75.250,289.356 75.340 M295.999 75.396 C 296.042 75.517,296.200 75.606,296.352 75.594 C 296.508 75.582,296.590 75.669,296.541 75.796 C 296.494 75.920,296.546 76.077,296.658 76.146 C 296.794 76.230,296.840 76.135,296.798 75.856 C 296.763 75.627,296.637 75.460,296.519 75.484 C 296.400 75.508,296.303 75.449,296.303 75.352 C 296.303 75.255,296.217 75.176,296.112 75.176 C 296.007 75.176,295.956 75.275,295.999 75.396 M326.676 75.690 C 326.611 75.986,326.484 76.274,326.395 76.329 C 326.306 76.384,326.232 76.513,326.232 76.616 C 326.232 76.738,326.321 76.730,326.485 76.594 C 326.748 76.376,327.036 75.393,326.882 75.239 C 326.834 75.190,326.741 75.393,326.676 75.690 M204.984 77.553 C 204.985 78.134,205.018 78.350,205.057 78.034 C 205.096 77.717,205.096 77.242,205.055 76.977 C 205.015 76.713,204.983 76.972,204.984 77.553 M325.440 76.761 C 325.128 76.895,325.143 76.913,325.572 76.924 C 325.838 76.931,326.056 76.857,326.056 76.761 C 326.056 76.554,325.921 76.554,325.440 76.761 M174.333 77.323 C 174.710 77.890,175.000 77.920,175.000 77.391 C 175.000 77.018,174.917 76.937,174.538 76.937 C 174.103 76.937,174.091 76.958,174.333 77.323 M338.949 77.465 C 338.949 77.804,338.986 77.942,339.030 77.773 C 339.074 77.603,339.074 77.326,339.030 77.157 C 338.986 76.987,338.949 77.126,338.949 77.465 M117.958 77.289 C 118.103 77.383,118.380 77.455,118.574 77.450 L 118.926 77.440 118.574 77.289 C 118.048 77.063,117.608 77.063,117.958 77.289 M136.972 77.281 C 136.972 77.412,137.109 77.445,137.346 77.370 C 137.599 77.289,137.681 77.315,137.599 77.447 C 137.532 77.555,137.621 77.697,137.797 77.763 C 138.210 77.918,138.544 78.351,138.551 78.741 C 138.554 78.911,138.644 79.049,138.752 79.049 C 138.999 79.049,138.796 77.818,138.499 77.522 C 138.193 77.215,136.972 77.023,136.972 77.281 M326.144 77.289 C 326.085 77.386,326.151 77.465,326.291 77.465 C 326.432 77.465,326.597 77.595,326.658 77.754 C 326.719 77.913,326.813 77.999,326.867 77.945 C 326.998 77.814,326.615 77.113,326.413 77.113 C 326.325 77.113,326.204 77.192,326.144 77.289 M373.329 77.291 C 373.388 77.386,373.370 77.465,373.288 77.465 C 373.207 77.465,373.128 77.683,373.112 77.949 L 373.084 78.433 373.259 77.998 C 373.355 77.759,373.515 77.512,373.615 77.450 C 373.724 77.383,373.681 77.293,373.509 77.227 C 373.341 77.163,373.266 77.189,373.329 77.291 M117.327 77.488 C 117.137 77.795,117.525 78.038,117.758 77.757 C 117.922 77.560,117.910 77.484,117.704 77.405 C 117.559 77.350,117.390 77.387,117.327 77.488 M359.155 77.641 C 359.367 77.778,359.370 77.812,359.174 77.814 C 359.031 77.816,359.177 78.072,359.526 78.431 C 360.380 79.310,360.859 79.229,360.359 78.289 C 360.086 77.778,359.674 77.477,359.243 77.473 C 358.952 77.471,358.936 77.500,359.155 77.641 M117.080 78.203 C 117.085 78.645,117.424 79.009,117.427 78.576 C 117.428 78.363,117.350 78.141,117.254 78.081 C 117.157 78.021,117.079 78.076,117.080 78.203 M95.731 78.909 C 95.261 79.034,95.070 79.181,95.070 79.419 C 95.070 79.855,95.361 79.847,95.639 79.401 C 95.760 79.208,95.979 79.048,96.125 79.047 C 96.271 79.045,96.510 78.967,96.655 78.873 C 97.004 78.648,96.665 78.661,95.731 78.909 M33.099 82.042 L 33.099 85.035 31.089 85.035 L 29.080 85.035 28.957 84.287 C 28.790 83.272,28.607 83.099,27.707 83.099 L 26.937 83.099 26.937 82.042 L 26.937 80.986 27.707 80.986 C 28.609 80.986,28.816 80.791,28.976 79.789 L 29.094 79.049 31.096 79.049 L 33.099 79.049 33.099 82.042 M106.690 79.244 C 106.690 79.327,106.997 79.551,107.373 79.742 C 107.748 79.934,108.105 80.233,108.165 80.406 C 108.263 80.687,108.251 80.691,108.055 80.442 C 107.806 80.127,107.042 79.682,107.042 79.853 C 107.042 80.076,108.080 80.927,108.352 80.927 C 108.644 80.927,108.584 80.415,108.242 79.987 C 108.008 79.694,106.690 79.063,106.690 79.244 M115.213 79.200 C 115.265 79.283,115.025 79.501,114.680 79.685 C 114.335 79.868,113.939 80.235,113.800 80.502 L 113.547 80.986 114.237 80.986 C 114.991 80.986,115.213 80.720,115.040 80.027 C 114.971 79.756,115.028 79.591,115.216 79.519 C 115.527 79.399,115.594 79.049,115.307 79.049 C 115.204 79.049,115.162 79.117,115.213 79.200 M161.972 79.458 C 162.877 79.909,162.901 79.910,162.746 79.505 C 162.682 79.340,162.525 79.246,162.395 79.296 C 162.265 79.345,162.112 79.310,162.055 79.218 C 161.998 79.125,161.777 79.053,161.565 79.057 C 161.283 79.062,161.391 79.169,161.972 79.458 M173.239 79.203 C 173.239 79.288,173.008 79.404,172.725 79.460 C 172.099 79.586,171.475 80.217,171.490 80.711 C 171.501 81.069,171.503 81.069,171.645 80.722 C 171.835 80.258,172.333 79.822,172.932 79.594 C 173.337 79.440,173.621 79.049,173.327 79.049 C 173.279 79.049,173.239 79.119,173.239 79.203 M192.958 79.313 C 193.215 79.460,193.289 79.568,193.137 79.571 C 192.993 79.575,193.172 79.778,193.533 80.024 C 193.894 80.270,194.190 80.586,194.190 80.728 C 194.190 80.870,194.309 80.986,194.454 80.986 C 195.242 80.986,194.493 79.654,193.518 79.322 C 192.537 78.987,192.383 78.985,192.958 79.313 M223.492 79.314 C 223.873 79.461,224.328 79.712,224.504 79.871 C 224.793 80.133,224.824 80.133,224.824 79.879 C 224.824 79.461,224.502 79.291,223.415 79.135 L 222.799 79.047 223.492 79.314 M231.690 79.244 C 231.690 79.351,231.581 79.397,231.447 79.346 C 231.277 79.281,231.172 79.445,231.100 79.890 C 230.973 80.675,231.085 80.858,231.245 80.126 C 231.312 79.823,231.509 79.547,231.702 79.486 C 232.054 79.374,232.176 79.049,231.866 79.049 C 231.769 79.049,231.690 79.137,231.690 79.244 M276.937 79.193 C 276.937 79.424,277.918 79.645,278.192 79.475 C 278.326 79.392,278.353 79.423,278.267 79.561 C 278.194 79.679,278.253 79.909,278.398 80.073 C 278.542 80.236,278.699 80.528,278.747 80.722 C 278.806 80.967,278.839 80.912,278.853 80.541 C 278.879 79.851,278.436 79.225,277.941 79.252 C 277.727 79.263,277.414 79.214,277.245 79.142 C 277.066 79.067,276.937 79.088,276.937 79.193 M287.183 79.261 C 286.922 79.521,286.900 80.171,287.157 80.012 C 287.259 79.949,287.312 79.806,287.274 79.693 C 287.236 79.581,287.331 79.393,287.485 79.275 C 287.638 79.157,287.681 79.058,287.579 79.055 C 287.478 79.052,287.299 79.144,287.183 79.261 M361.444 79.100 C 361.444 79.264,362.490 79.560,362.576 79.420 C 362.623 79.345,362.565 79.277,362.448 79.267 C 362.331 79.258,362.058 79.196,361.840 79.130 C 361.622 79.063,361.444 79.049,361.444 79.100 M371.328 79.206 C 371.183 79.298,371.158 79.400,371.264 79.465 C 371.360 79.525,371.537 79.456,371.657 79.311 C 371.894 79.025,371.708 78.965,371.328 79.206 M202.522 79.499 C 201.934 79.756,201.408 80.364,201.408 80.787 C 201.408 80.925,201.589 80.769,201.811 80.441 C 202.032 80.113,202.369 79.820,202.559 79.792 C 202.841 79.749,202.815 79.809,202.421 80.113 C 201.945 80.481,201.767 80.986,202.113 80.986 C 202.210 80.986,202.289 80.886,202.289 80.764 C 202.289 80.642,202.454 80.439,202.656 80.313 C 202.857 80.187,202.982 79.980,202.933 79.852 C 202.884 79.725,202.933 79.531,203.042 79.423 C 203.284 79.181,203.230 79.189,202.522 79.499 M307.200 79.358 C 307.404 79.424,307.405 79.462,307.209 79.583 C 307.031 79.693,307.086 79.781,307.428 79.937 C 307.679 80.051,307.985 80.334,308.109 80.565 C 308.430 81.166,308.841 81.122,308.697 80.502 C 308.545 79.852,308.121 79.452,307.482 79.358 C 307.192 79.315,307.065 79.315,307.200 79.358 M267.206 79.684 C 267.135 79.754,267.077 79.934,267.077 80.082 C 267.077 80.280,267.130 80.300,267.273 80.156 C 267.381 80.049,267.439 79.869,267.402 79.758 C 267.365 79.647,267.276 79.613,267.206 79.684 M172.601 79.997 C 172.215 80.176,171.746 80.784,171.886 80.924 C 171.930 80.968,172.228 80.764,172.549 80.471 C 173.178 79.897,173.197 79.721,172.601 79.997 M213.028 80.073 C 213.028 80.176,213.109 80.311,213.207 80.371 C 213.306 80.432,213.333 80.568,213.268 80.673 C 213.201 80.782,213.231 80.814,213.338 80.748 C 213.442 80.684,213.557 80.723,213.594 80.835 C 213.631 80.947,213.737 81.007,213.829 80.968 C 213.921 80.930,213.779 80.670,213.512 80.392 C 213.246 80.113,213.028 79.970,213.028 80.073 M286.479 80.493 C 286.168 80.803,286.221 80.986,286.620 80.986 C 286.854 80.986,286.972 80.869,286.972 80.634 C 286.972 80.235,286.789 80.183,286.479 80.493 M352.465 80.500 C 352.223 80.597,351.787 80.745,351.496 80.828 C 351.086 80.946,351.162 80.961,351.841 80.893 C 352.322 80.845,352.792 80.729,352.886 80.635 C 353.152 80.369,352.950 80.304,352.465 80.500 M212.708 80.825 C 212.587 81.018,212.429 81.139,212.357 81.095 C 212.174 80.981,210.828 82.365,210.977 82.514 C 211.227 82.764,212.069 82.284,212.345 81.734 C 212.501 81.422,212.730 81.044,212.854 80.896 C 212.977 80.747,213.044 80.591,213.003 80.550 C 212.961 80.508,212.828 80.632,212.708 80.825 M267.350 80.621 C 267.442 80.711,267.755 80.837,268.046 80.901 L 268.574 81.016 268.070 80.737 C 267.510 80.427,267.081 80.358,267.350 80.621 M183.109 81.162 C 183.109 81.665,183.142 81.721,183.289 81.470 C 183.411 81.261,183.411 81.063,183.289 80.854 C 183.142 80.603,183.109 80.659,183.109 81.162 M182.643 81.118 C 182.405 81.916,182.082 82.319,181.554 82.475 C 180.767 82.708,180.838 82.989,181.646 82.841 C 182.490 82.687,182.684 82.478,182.833 81.558 C 182.952 80.820,182.822 80.519,182.643 81.118 M298.415 81.426 C 298.643 81.668,298.855 81.866,298.886 81.866 C 298.918 81.866,298.944 81.668,298.944 81.426 C 298.944 81.066,298.858 80.986,298.473 80.986 L 298.002 80.986 298.415 81.426 M326.685 81.644 C 326.615 81.958,326.484 82.259,326.395 82.315 C 326.185 82.445,326.184 82.746,326.395 82.746 C 326.598 82.746,326.992 81.588,326.889 81.292 C 326.847 81.172,326.756 81.331,326.685 81.644 M183.357 81.883 C 183.200 82.378,183.571 82.731,184.387 82.863 C 184.844 82.938,185.035 82.904,185.035 82.749 C 185.035 82.610,184.875 82.560,184.600 82.612 C 184.361 82.658,184.208 82.627,184.259 82.544 C 184.311 82.460,184.229 82.344,184.078 82.286 C 183.927 82.228,183.803 82.075,183.803 81.946 C 183.803 81.538,183.481 81.493,183.357 81.883 M92.077 82.676 C 91.545 82.916,90.911 83.232,90.669 83.379 C 89.842 83.880,89.078 84.163,88.245 84.274 C 87.787 84.335,86.777 84.689,86.000 85.061 C 83.614 86.204,82.038 86.200,77.641 85.043 C 75.052 84.361,73.352 84.222,72.091 84.589 C 70.892 84.937,70.887 84.947,71.036 86.740 C 71.181 88.479,71.461 88.908,72.447 88.908 C 73.054 88.908,73.063 88.919,73.066 89.657 C 73.070 90.712,73.241 90.890,74.344 90.981 C 75.221 91.054,75.327 91.110,75.549 91.613 C 76.093 92.849,76.523 92.928,82.778 92.944 C 89.000 92.959,88.781 93.002,88.996 91.729 C 89.111 91.047,89.140 91.021,89.790 91.021 C 90.891 91.021,91.021 90.908,91.021 89.955 L 91.021 89.103 91.945 89.050 L 92.870 88.996 92.922 87.985 C 92.971 87.047,93.009 86.967,93.451 86.873 C 94.526 86.643,94.655 86.515,94.867 85.462 C 95.491 82.353,94.653 81.515,92.077 82.676 M296.655 82.338 C 296.655 82.436,296.477 82.603,296.259 82.708 C 295.975 82.845,295.944 82.902,296.149 82.911 C 296.475 82.924,296.940 82.445,296.768 82.273 C 296.706 82.211,296.655 82.240,296.655 82.338 M325.440 82.746 C 325.128 82.881,325.143 82.899,325.572 82.910 C 325.838 82.917,326.056 82.843,326.056 82.746 C 326.056 82.540,325.921 82.540,325.440 82.746 M154.529 83.495 C 154.730 83.713,154.933 84.049,154.980 84.243 C 155.046 84.517,155.069 84.491,155.085 84.125 C 155.115 83.429,154.936 83.099,154.528 83.099 L 154.164 83.099 154.529 83.495 M331.209 83.583 C 331.213 83.897,331.296 84.155,331.394 84.155 C 331.492 84.155,331.521 84.207,331.457 84.271 C 331.249 84.479,331.723 84.859,332.191 84.859 L 332.649 84.859 332.257 84.585 C 332.042 84.434,331.774 84.367,331.663 84.436 C 331.541 84.511,331.507 84.484,331.579 84.368 C 331.645 84.261,331.587 83.912,331.451 83.592 L 331.202 83.011 331.209 83.583 M353.684 83.426 C 354.035 84.081,354.796 84.564,354.974 84.245 C 355.331 83.608,355.061 83.190,354.257 83.132 C 353.547 83.081,353.510 83.100,353.684 83.426 M269.106 83.803 C 269.162 84.045,269.231 84.362,269.260 84.507 C 269.288 84.652,269.462 84.790,269.647 84.814 C 269.901 84.846,269.919 84.825,269.718 84.726 C 269.573 84.654,269.440 84.516,269.423 84.419 C 269.406 84.322,269.304 84.045,269.198 83.803 L 269.004 83.363 269.106 83.803 M150.725 83.965 C 150.713 84.103,150.573 84.360,150.413 84.537 C 150.253 84.714,150.203 84.859,150.303 84.859 C 150.605 84.859,150.915 84.369,150.827 84.031 C 150.778 83.842,150.737 83.815,150.725 83.965 M131.162 84.317 C 131.162 84.524,131.284 84.741,131.434 84.798 C 131.849 84.958,131.870 84.813,131.499 84.355 C 131.166 83.945,131.162 83.945,131.162 84.317 M185.044 84.243 C 185.039 84.505,185.353 84.952,185.464 84.841 C 185.517 84.789,185.444 84.593,185.303 84.406 C 185.162 84.220,185.045 84.146,185.044 84.243 M299.164 84.551 C 299.204 84.672,299.383 84.799,299.562 84.834 C 299.861 84.892,299.864 84.874,299.604 84.614 C 299.266 84.276,299.062 84.247,299.164 84.551 M178.037 85.152 C 177.916 85.201,177.817 85.339,177.817 85.460 C 177.817 85.581,177.619 85.786,177.377 85.915 C 177.135 86.045,176.937 86.256,176.937 86.385 C 176.937 86.975,178.241 86.291,178.493 85.569 C 178.682 85.025,178.581 84.932,178.037 85.152 M347.124 85.153 C 347.060 85.217,347.007 85.500,347.007 85.780 C 347.007 86.061,346.918 86.464,346.808 86.675 C 346.619 87.042,346.625 87.046,346.940 86.767 C 347.994 85.834,348.415 85.393,348.415 85.225 C 348.415 85.020,347.318 84.959,347.124 85.153 M376.585 85.360 C 376.585 85.816,376.036 86.398,375.472 86.539 C 374.751 86.720,374.663 87.033,375.374 86.889 C 376.462 86.670,376.583 86.599,376.688 86.124 C 376.746 85.864,376.831 85.513,376.877 85.343 C 376.923 85.174,376.876 85.035,376.772 85.035 C 376.669 85.035,376.585 85.182,376.585 85.360 M217.328 85.446 C 217.117 85.998,218.233 87.107,218.615 86.725 C 218.671 86.669,218.837 86.721,218.983 86.841 C 219.199 87.020,219.231 87.012,219.158 86.796 C 219.108 86.651,218.867 86.534,218.621 86.537 C 218.329 86.541,218.204 86.464,218.261 86.317 C 218.309 86.193,218.260 86.092,218.153 86.092 C 218.045 86.092,217.958 86.175,217.958 86.278 C 217.958 86.381,217.870 86.410,217.763 86.344 C 217.624 86.258,217.631 86.185,217.786 86.089 C 217.955 85.984,217.941 85.863,217.723 85.552 C 217.476 85.200,217.428 85.187,217.328 85.446 M292.802 85.495 C 292.776 85.976,291.961 86.790,291.481 86.816 C 291.232 86.830,291.201 86.861,291.387 86.911 C 292.157 87.118,293.104 86.171,292.897 85.401 C 292.847 85.215,292.816 85.246,292.802 85.495 M322.711 85.624 C 322.711 86.107,322.250 86.573,321.542 86.805 C 321.108 86.947,321.136 86.956,321.743 86.871 C 322.130 86.818,322.546 86.645,322.667 86.487 C 322.878 86.212,322.982 85.211,322.799 85.211 C 322.751 85.211,322.711 85.397,322.711 85.624 M157.042 85.704 C 157.042 85.917,157.119 86.092,157.213 86.092 C 157.307 86.092,157.338 86.209,157.283 86.353 C 157.217 86.525,157.343 86.676,157.652 86.793 C 158.387 87.073,158.793 87.011,158.212 86.708 C 157.936 86.563,157.659 86.477,157.596 86.516 C 157.534 86.554,157.470 86.388,157.456 86.145 C 157.421 85.563,157.042 85.160,157.042 85.704 M243.134 85.827 C 243.134 85.973,243.211 86.092,243.304 86.092 C 243.398 86.092,243.431 86.205,243.378 86.343 C 243.311 86.519,243.485 86.652,243.956 86.783 C 245.002 87.073,245.235 86.999,244.427 86.632 C 244.025 86.449,243.643 86.134,243.579 85.932 C 243.445 85.508,243.134 85.435,243.134 85.827 M234.859 85.815 C 234.859 86.245,235.466 86.966,235.827 86.966 C 235.939 86.966,235.937 86.919,235.821 86.837 C 235.721 86.766,235.464 86.479,235.249 86.200 C 235.035 85.921,234.859 85.747,234.859 85.815 M357.042 85.870 C 357.042 85.980,357.123 86.121,357.221 86.181 C 357.320 86.242,357.357 86.362,357.304 86.447 C 357.196 86.622,357.776 86.979,358.131 86.958 C 358.258 86.950,358.165 86.850,357.923 86.736 C 357.680 86.623,357.457 86.411,357.426 86.267 C 357.351 85.921,357.042 85.601,357.042 85.870 M101.056 86.092 C 101.056 86.188,101.133 86.268,101.227 86.268 C 101.321 86.268,101.356 86.377,101.304 86.510 C 101.213 86.747,102.048 87.095,102.242 86.901 C 102.291 86.853,102.126 86.762,101.875 86.699 C 101.625 86.636,101.427 86.533,101.435 86.470 C 101.443 86.407,101.441 86.257,101.429 86.136 C 101.405 85.876,101.056 85.835,101.056 86.092 M206.734 86.488 C 206.545 87.005,206.550 87.027,206.783 86.718 C 207.007 86.422,207.140 85.915,206.993 85.915 C 206.966 85.915,206.849 86.173,206.734 86.488 M118.245 86.445 C 118.064 86.627,117.787 86.810,117.629 86.851 C 117.471 86.891,117.572 86.895,117.853 86.859 C 118.387 86.791,118.838 86.510,118.838 86.246 C 118.838 86.004,118.604 86.082,118.245 86.445 M189.141 86.445 C 189.176 86.676,189.304 86.898,189.426 86.939 C 189.602 86.998,189.603 86.929,189.430 86.596 C 189.118 85.998,189.068 85.972,189.141 86.445 M335.035 86.341 C 335.035 86.527,335.566 87.028,335.661 86.933 C 335.705 86.889,335.583 86.708,335.388 86.533 C 335.194 86.357,335.035 86.271,335.035 86.341 M81.270 97.167 C 79.719 97.306,79.225 97.655,79.225 98.611 L 79.225 99.120 77.295 99.120 C 75.132 99.120,75.000 99.195,75.000 100.429 C 75.000 101.041,74.984 101.056,74.310 101.056 C 73.171 101.056,73.063 101.157,73.063 102.220 L 73.063 103.169 72.293 103.169 C 71.000 103.169,71.039 102.957,71.039 110.035 C 71.039 117.040,71.005 116.846,72.241 116.936 L 72.975 116.989 73.063 117.958 L 73.151 118.926 74.076 118.979 L 75.000 119.032 75.000 119.713 C 75.000 120.949,75.003 120.951,77.108 120.951 L 79.003 120.951 79.098 121.662 C 79.269 122.935,80.681 123.273,84.599 122.980 C 86.483 122.838,86.694 122.716,86.861 121.667 L 86.976 120.951 88.892 120.951 C 91.021 120.951,91.021 120.950,91.021 119.713 L 91.021 119.032 91.945 118.979 L 92.870 118.926 92.923 118.011 L 92.975 117.096 93.753 116.980 C 95.027 116.789,94.982 117.042,94.982 110.035 C 94.982 102.964,95.020 103.169,93.737 103.169 L 92.975 103.169 92.923 102.157 L 92.870 101.144 91.945 101.091 C 91.035 101.039,91.021 101.030,91.019 100.475 C 91.013 99.133,91.018 99.136,88.848 99.081 L 86.889 99.032 86.777 98.342 C 86.634 97.456,86.242 97.183,85.114 97.183 C 84.614 97.183,83.856 97.152,83.431 97.113 C 83.006 97.074,82.034 97.099,81.270 97.167 M24.304 99.296 C 23.594 99.467,23.239 99.880,23.239 100.537 C 23.239 100.972,23.171 101.015,22.328 101.115 C 21.233 101.245,21.205 101.283,21.058 102.872 C 20.929 104.256,20.381 105.106,19.616 105.106 C 19.031 105.106,19.014 105.266,19.014 110.830 C 19.014 116.287,19.089 116.900,19.758 116.904 C 20.688 116.909,20.951 117.090,20.951 117.726 C 20.951 118.758,21.197 119.014,22.189 119.014 L 23.063 119.014 23.063 119.982 L 23.063 120.951 24.120 120.951 L 25.176 120.951 25.176 121.567 C 25.176 122.960,26.022 123.131,32.453 123.035 C 36.967 122.968,36.972 122.966,36.972 121.644 L 36.972 120.997 38.282 120.913 C 40.258 120.786,41.021 119.916,41.021 117.793 L 41.021 117.077 41.769 117.075 C 43.051 117.070,42.980 117.491,42.922 110.225 C 42.864 102.910,42.911 103.169,41.626 103.169 C 41.081 103.169,41.064 103.145,40.980 102.270 C 40.881 101.241,40.690 101.063,39.680 101.059 C 38.964 101.056,38.954 101.047,38.857 100.331 C 38.804 99.932,38.671 99.516,38.562 99.406 C 38.323 99.167,25.261 99.066,24.304 99.296 M69.723 100.459 C 69.387 100.691,69.204 100.880,69.317 100.880 C 69.429 100.880,69.571 100.800,69.632 100.701 C 69.693 100.603,69.816 100.568,69.907 100.624 C 69.997 100.679,70.070 100.636,70.070 100.528 C 70.070 100.420,70.144 100.377,70.234 100.433 C 70.324 100.488,70.445 100.459,70.501 100.367 C 70.723 100.009,70.305 100.058,69.723 100.459 M46.366 101.583 C 45.938 101.755,45.423 102.418,45.423 102.794 C 45.423 102.932,45.604 102.776,45.825 102.448 C 46.046 102.120,46.383 101.827,46.573 101.797 C 46.886 101.748,46.880 101.774,46.513 102.068 C 46.290 102.247,46.006 102.588,45.882 102.825 C 45.759 103.063,45.559 103.235,45.439 103.209 C 45.319 103.182,45.270 103.241,45.332 103.341 C 45.494 103.603,46.303 103.074,46.303 102.707 C 46.303 102.620,46.457 102.454,46.644 102.336 C 46.832 102.219,46.974 101.962,46.959 101.766 C 46.929 101.371,46.907 101.364,46.366 101.583 M33.099 108.011 L 33.099 108.979 34.067 108.979 L 35.035 108.979 35.035 110.015 L 35.035 111.052 34.234 111.172 C 33.385 111.299,33.099 111.660,33.099 112.599 C 33.099 112.956,33.012 113.028,32.582 113.028 C 31.741 113.028,31.164 113.326,31.142 113.772 C 31.123 114.129,31.112 114.134,31.039 113.820 C 30.917 113.302,30.473 113.028,29.752 113.028 C 29.120 113.028,29.112 113.019,28.949 112.104 L 28.785 111.180 27.817 111.091 L 26.849 111.003 27.574 110.873 C 28.500 110.707,28.666 110.491,28.925 109.127 C 29.280 107.259,29.530 107.054,31.470 107.048 L 33.099 107.042 33.099 108.011 M85.070 107.967 L 85.123 108.891 86.048 108.944 L 86.972 108.997 86.972 110.035 L 86.972 111.073 86.048 111.126 L 85.123 111.180 85.070 112.104 L 85.017 113.028 83.001 113.028 L 80.986 113.028 80.986 112.338 C 80.986 111.218,80.876 111.092,79.911 111.092 L 79.049 111.092 79.049 110.035 L 79.049 108.979 79.911 108.979 C 80.876 108.979,80.986 108.852,80.986 107.732 L 80.986 107.042 83.001 107.042 L 85.017 107.042 85.070 107.967 M53.643 113.151 C 53.296 113.241,52.993 113.875,52.993 114.511 C 52.993 114.932,51.986 115.136,49.888 115.140 L 49.160 115.141 49.039 116.109 L 48.918 117.077 48.174 117.077 C 47.206 117.077,47.007 117.306,47.007 118.419 C 47.007 119.305,46.984 119.348,46.348 119.660 C 45.915 119.871,45.628 120.164,45.514 120.511 C 45.418 120.801,45.277 121.084,45.202 121.139 C 45.126 121.194,45.086 123.412,45.112 126.069 L 45.158 130.898 46.067 130.951 L 46.975 131.003 47.035 132.829 C 47.104 134.936,47.075 134.884,48.236 134.995 C 49.118 135.080,49.120 135.081,49.122 135.718 C 49.127 136.867,49.156 136.878,52.282 136.940 L 55.106 136.996 55.106 137.676 C 55.106 138.778,55.419 138.951,57.291 138.880 C 59.267 138.805,60.213 138.408,60.466 137.549 L 60.633 136.982 62.755 136.933 L 64.877 136.884 64.930 135.960 L 64.983 135.035 65.752 135.035 C 66.957 135.035,67.077 134.938,67.077 133.960 L 67.077 133.099 67.694 133.099 C 69.034 133.099,69.014 133.206,69.011 126.012 C 69.008 118.990,69.040 119.190,67.900 119.061 L 67.094 118.970 67.042 118.068 C 66.992 117.217,66.960 117.162,66.477 117.107 C 65.813 117.031,64.965 116.183,64.965 115.595 C 64.965 115.217,64.883 115.141,64.481 115.139 C 63.221 115.134,62.698 114.937,62.586 114.427 C 62.345 113.332,61.114 113.022,57.097 113.049 C 55.372 113.060,53.818 113.106,53.643 113.151 M59.064 123.504 C 59.114 123.746,59.194 124.132,59.241 124.363 C 59.330 124.798,59.751 124.993,60.607 124.998 C 61.082 125.000,61.092 125.022,61.092 126.056 L 61.092 127.113 60.207 127.113 C 59.236 127.113,58.979 127.410,58.979 128.533 L 58.979 129.049 56.954 129.049 L 54.930 129.049 54.930 126.056 L 54.930 123.063 56.951 123.063 C 58.965 123.063,58.972 123.065,59.064 123.504 " stroke="none" fill="#7c7c7c" fill-rule="evenodd"></path><path id="path1" d="M131.208 55.340 C 131.134 55.453,131.047 56.794,131.014 58.319 L 130.955 61.092 129.166 61.112 C 128.182 61.124,127.317 61.124,127.245 61.112 C 127.172 61.101,127.113 61.180,127.113 61.288 C 127.113 61.419,126.835 61.449,126.276 61.381 C 125.816 61.324,125.543 61.323,125.670 61.378 C 125.843 61.455,125.821 61.538,125.582 61.720 C 125.176 62.028,124.987 62.035,125.100 61.739 C 125.363 61.054,119.754 60.755,119.240 61.427 C 119.079 61.638,119.024 63.634,119.020 69.410 L 119.014 77.113 118.618 77.125 C 118.237 77.137,118.236 77.144,118.574 77.303 C 118.838 77.427,118.765 77.445,118.280 77.373 C 117.922 77.321,117.584 77.358,117.522 77.457 C 117.454 77.568,117.533 77.591,117.729 77.518 C 118.007 77.414,118.016 77.435,117.806 77.694 C 117.674 77.856,117.497 77.946,117.412 77.894 C 117.328 77.842,117.304 78.061,117.359 78.380 C 117.435 78.822,117.414 78.898,117.271 78.697 C 117.109 78.469,117.082 78.475,117.080 78.741 C 117.078 78.983,116.926 79.049,116.373 79.049 C 115.556 79.049,114.885 79.576,115.048 80.090 C 115.324 80.959,115.164 80.999,111.515 80.978 L 108.107 80.959 107.574 80.462 C 107.282 80.188,107.042 79.914,107.042 79.853 C 107.042 79.682,107.806 80.127,108.055 80.442 C 108.251 80.691,108.263 80.687,108.165 80.406 C 108.105 80.233,107.748 79.934,107.373 79.742 C 106.997 79.551,106.690 79.317,106.690 79.222 C 106.690 79.127,106.296 79.049,105.815 79.049 L 104.940 79.049 104.866 70.731 C 104.786 61.517,104.803 61.835,104.361 61.695 C 104.187 61.640,104.089 61.522,104.144 61.434 C 104.200 61.342,103.993 61.316,103.662 61.373 C 103.225 61.448,103.146 61.427,103.345 61.288 C 103.534 61.156,102.744 61.106,100.572 61.114 C 98.755 61.121,97.535 61.194,97.535 61.295 C 97.535 61.388,97.465 61.421,97.379 61.368 C 97.083 61.185,97.012 62.077,96.989 66.285 C 96.976 68.609,96.932 70.352,96.890 70.158 C 96.703 69.301,96.463 69.064,95.802 69.083 L 95.158 69.102 95.108 67.279 C 95.060 65.537,94.850 64.843,94.419 65.003 C 94.344 65.030,94.254 64.905,94.220 64.724 C 94.174 64.486,94.222 64.435,94.393 64.540 C 94.558 64.641,94.544 64.555,94.348 64.257 C 93.932 63.627,92.681 63.028,91.780 63.028 C 90.956 63.028,90.890 62.958,90.776 61.972 C 90.736 61.633,90.617 61.375,90.511 61.400 C 90.404 61.424,90.317 61.367,90.317 61.274 C 90.317 61.168,86.936 61.105,81.244 61.105 C 74.641 61.104,72.203 61.157,72.291 61.300 C 72.374 61.433,72.268 61.459,71.956 61.381 C 71.705 61.318,71.452 61.345,71.392 61.441 C 71.327 61.546,71.411 61.568,71.602 61.497 C 71.880 61.392,71.889 61.414,71.679 61.673 C 71.547 61.835,71.359 61.918,71.261 61.858 C 71.149 61.788,71.110 61.982,71.156 62.380 L 71.230 63.013 70.166 63.065 L 69.102 63.116 69.014 64.085 C 68.955 64.737,68.785 65.240,68.494 65.628 C 68.257 65.945,68.035 66.414,68.000 66.671 C 67.966 66.928,67.850 67.301,67.744 67.500 C 67.448 68.052,67.263 68.970,67.154 70.423 C 67.099 71.149,66.929 72.139,66.775 72.623 C 66.621 73.107,66.507 73.685,66.521 73.906 C 66.535 74.127,66.429 74.353,66.285 74.408 C 66.141 74.464,66.067 74.580,66.121 74.666 C 66.205 74.802,65.840 74.903,65.460 74.848 C 65.131 74.802,66.152 76.261,66.582 76.451 L 67.077 76.670 67.077 79.532 C 67.077 81.106,67.058 82.440,67.033 82.497 C 66.949 82.694,67.876 83.086,68.442 83.092 C 69.001 83.098,69.014 83.116,69.014 83.885 C 69.014 85.118,69.851 85.350,71.860 84.673 C 73.247 84.206,74.859 84.309,77.641 85.042 C 82.036 86.201,83.614 86.204,86.000 85.061 C 86.777 84.689,87.787 84.335,88.245 84.274 C 89.078 84.163,89.842 83.881,90.669 83.379 C 92.207 82.447,94.718 81.836,94.718 82.394 C 94.718 82.491,94.798 82.570,94.894 82.570 C 95.000 82.570,95.070 81.872,95.070 80.827 L 95.070 79.084 95.941 78.876 C 96.730 78.686,96.817 78.615,96.881 78.110 C 96.919 77.803,96.963 78.585,96.979 79.846 C 97.012 82.508,97.151 82.857,98.249 83.033 C 98.887 83.135,98.944 83.189,98.944 83.698 C 98.944 84.649,99.358 85.035,100.381 85.035 C 101.242 85.035,101.267 85.049,101.160 85.475 C 101.091 85.750,101.124 85.915,101.248 85.915 C 101.357 85.915,101.401 86.034,101.345 86.180 C 101.076 86.879,102.107 86.973,109.837 86.954 C 113.868 86.945,117.334 86.885,117.540 86.822 C 118.260 86.603,118.786 86.074,118.705 85.652 C 118.663 85.432,118.715 85.199,118.821 85.133 C 118.948 85.055,119.014 85.249,119.014 85.702 C 119.014 86.872,119.267 86.972,122.229 86.972 C 124.734 86.972,124.803 86.962,124.925 86.579 C 124.993 86.363,125.256 85.977,125.509 85.720 C 126.761 84.450,126.743 84.587,126.755 76.144 C 126.766 68.849,126.811 68.071,127.195 68.595 C 127.362 68.825,127.800 68.908,129.198 68.975 L 130.986 69.061 130.994 75.860 C 131.004 85.032,130.932 84.772,133.495 84.969 L 135.035 85.087 135.035 85.675 C 135.035 86.982,134.989 86.972,141.039 86.972 C 147.000 86.972,146.734 87.025,146.930 85.799 L 147.044 85.084 148.556 84.968 C 150.793 84.796,151.056 84.361,151.056 80.834 L 151.056 78.902 151.642 78.540 C 153.140 77.614,152.977 73.634,151.440 73.597 C 151.312 73.594,151.083 73.468,150.932 73.316 C 150.527 72.911,145.799 72.982,145.453 73.399 C 145.274 73.615,145.250 73.619,145.350 73.415 C 145.426 73.260,145.413 73.212,145.319 73.299 C 145.125 73.478,145.129 73.421,145.096 76.540 L 145.070 79.049 141.813 79.049 C 138.831 79.049,138.556 79.023,138.551 78.741 C 138.544 78.351,138.210 77.918,137.797 77.763 C 137.621 77.697,137.532 77.555,137.599 77.447 C 137.681 77.315,137.599 77.289,137.346 77.370 L 136.972 77.489 136.972 73.251 L 136.972 69.014 143.090 69.004 C 150.487 68.992,150.537 68.985,150.847 68.043 C 151.160 67.092,151.073 61.741,150.740 61.408 C 150.562 61.231,149.000 61.168,143.741 61.130 L 136.972 61.080 136.945 58.533 C 136.913 55.448,136.924 55.592,136.708 55.343 C 136.460 55.059,131.392 55.055,131.208 55.340 M331.223 55.325 C 331.150 55.444,331.193 55.459,331.341 55.368 C 331.487 55.278,331.464 55.381,331.280 55.644 C 331.038 55.989,330.986 56.513,330.986 58.578 L 330.986 61.092 329.313 61.114 C 327.129 61.142,327.249 61.114,327.146 61.620 C 327.029 62.193,327.001 66.545,327.107 67.740 C 327.205 68.843,327.549 69.011,329.710 69.013 L 330.986 69.014 330.986 75.801 C 330.986 81.207,331.035 82.685,331.228 83.063 C 331.635 83.864,331.761 84.395,331.506 84.238 C 331.360 84.148,331.328 84.172,331.411 84.307 C 331.481 84.420,331.610 84.469,331.697 84.415 C 331.785 84.361,332.057 84.448,332.301 84.608 C 332.546 84.768,333.262 84.941,333.891 84.992 L 335.035 85.083 335.035 85.665 C 335.035 85.985,335.116 86.297,335.214 86.357 C 335.313 86.418,335.340 86.554,335.275 86.659 C 335.207 86.769,335.238 86.800,335.348 86.732 C 335.453 86.667,335.589 86.694,335.650 86.793 C 335.824 87.074,346.595 87.035,346.770 86.752 C 346.845 86.631,346.949 86.215,347.001 85.827 C 347.092 85.148,347.120 85.122,347.799 85.080 C 348.187 85.057,348.991 84.992,349.586 84.936 L 350.669 84.835 350.862 84.065 C 350.969 83.641,351.056 82.736,351.056 82.052 C 351.056 80.954,351.095 80.810,351.387 80.810 C 351.569 80.810,352.005 80.690,352.355 80.543 L 352.993 80.277 352.993 81.490 C 352.993 82.894,353.111 83.051,354.229 83.131 L 355.018 83.187 355.024 83.945 C 355.031 84.858,355.247 85.029,356.403 85.033 C 357.172 85.035,357.250 85.071,357.167 85.387 C 357.117 85.581,357.152 85.787,357.247 85.845 C 357.341 85.903,357.376 86.062,357.324 86.197 C 357.262 86.358,357.449 86.535,357.862 86.708 C 358.585 87.010,374.717 87.112,374.900 86.815 C 374.953 86.729,375.211 86.605,375.472 86.539 C 376.036 86.398,376.585 85.816,376.585 85.360 C 376.585 85.084,376.728 85.035,377.540 85.035 C 378.705 85.035,379.049 84.751,379.049 83.790 C 379.049 83.125,379.071 83.099,379.632 83.099 C 380.961 83.099,380.892 83.547,380.951 74.618 C 381.002 67.034,380.944 65.110,380.668 65.177 C 379.875 65.370,379.049 64.901,379.049 64.258 C 379.049 63.370,378.686 63.028,377.743 63.028 C 377.025 63.028,376.255 62.102,376.386 61.396 C 376.400 61.321,376.212 61.310,375.970 61.371 C 375.700 61.439,375.528 61.407,375.528 61.289 C 375.528 61.152,372.967 61.099,366.634 61.105 C 360.175 61.111,357.772 61.167,357.860 61.309 C 357.938 61.434,357.877 61.464,357.689 61.392 C 357.529 61.331,357.412 61.337,357.428 61.406 C 357.444 61.475,357.360 61.868,357.243 62.280 L 357.029 63.028 356.067 63.028 C 355.321 63.028,355.106 63.089,355.106 63.298 C 355.106 63.446,354.967 63.617,354.798 63.677 C 354.328 63.843,353.850 64.303,353.677 64.755 C 353.592 64.979,353.451 65.118,353.364 65.064 C 353.127 64.918,352.993 65.414,352.993 66.437 C 352.993 67.285,352.955 67.367,352.483 67.545 C 351.882 67.772,351.364 68.492,351.364 69.102 C 351.364 69.340,351.309 69.501,351.240 69.459 C 351.172 69.417,351.098 70.189,351.076 71.174 C 351.028 73.324,351.449 73.027,348.371 73.082 C 346.938 73.108,345.775 73.201,345.775 73.291 C 345.775 73.380,345.656 73.408,345.511 73.352 C 345.365 73.296,345.235 73.347,345.222 73.465 C 345.146 74.119,345.128 74.592,345.101 76.717 L 345.070 79.049 342.097 79.049 L 339.123 79.049 339.016 78.389 C 338.958 78.026,338.859 75.768,338.797 73.371 L 338.684 69.014 343.877 69.014 C 350.622 69.014,350.618 69.015,350.865 68.034 C 350.970 67.616,351.056 66.041,351.056 64.535 C 351.056 60.729,351.743 61.092,344.542 61.092 L 338.732 61.092 338.698 59.947 C 338.679 59.318,338.660 58.545,338.654 58.231 C 338.649 57.916,338.526 57.529,338.380 57.370 C 338.235 57.211,337.848 56.795,337.519 56.445 C 337.191 56.096,337.012 55.810,337.121 55.810 C 337.237 55.810,337.197 55.666,337.026 55.466 C 336.687 55.070,331.459 54.943,331.223 55.325 M157.846 61.287 C 157.911 61.391,157.820 61.444,157.632 61.411 C 157.404 61.372,157.322 61.448,157.358 61.664 C 157.387 61.833,157.344 61.972,157.263 61.972 C 157.182 61.972,157.120 62.190,157.123 62.456 C 157.130 62.914,157.082 62.943,156.250 62.992 C 155.766 63.020,155.290 63.140,155.194 63.258 C 155.097 63.376,154.804 63.609,154.544 63.776 C 154.283 63.943,153.828 64.431,153.531 64.862 L 152.993 65.644 152.993 69.165 C 152.993 71.739,153.052 72.749,153.213 72.921 C 153.334 73.051,153.582 73.449,153.764 73.805 C 153.992 74.252,154.252 74.488,154.598 74.564 C 154.875 74.625,155.147 74.748,155.202 74.837 C 155.257 74.927,155.694 75.000,156.172 75.000 L 157.042 75.000 157.063 75.748 C 157.075 76.160,157.073 76.562,157.059 76.642 C 157.045 76.721,157.109 76.740,157.202 76.683 C 157.294 76.626,157.420 76.659,157.481 76.758 C 157.553 76.875,160.589 76.937,166.296 76.937 L 175.000 76.937 175.000 77.993 L 175.000 79.049 174.227 79.049 C 173.702 79.049,173.421 79.134,173.352 79.313 C 173.296 79.459,173.135 79.577,172.994 79.577 C 172.642 79.577,171.655 80.433,171.655 80.737 C 171.655 80.945,170.925 80.986,167.254 80.986 C 162.498 80.986,162.852 81.053,162.780 80.135 C 162.770 80.005,162.625 79.799,162.457 79.677 C 162.290 79.555,162.212 79.390,162.283 79.312 C 162.354 79.233,162.308 79.229,162.181 79.302 C 161.620 79.626,160.915 79.048,160.915 78.264 C 160.915 77.171,160.638 77.095,156.720 77.121 C 152.719 77.147,153.006 76.921,152.999 80.062 C 152.992 82.719,153.154 83.099,154.295 83.099 C 154.955 83.099,155.106 83.310,155.106 84.239 C 155.106 84.915,155.312 85.035,156.470 85.035 C 156.914 85.035,157.225 85.087,157.161 85.151 C 157.097 85.215,157.133 85.372,157.240 85.501 C 157.346 85.630,157.386 85.859,157.328 86.010 C 157.259 86.191,157.293 86.242,157.426 86.160 C 157.564 86.075,157.592 86.132,157.514 86.336 C 157.451 86.502,157.468 86.595,157.554 86.542 C 157.640 86.489,157.936 86.563,158.212 86.708 C 158.729 86.977,175.982 87.124,176.658 86.865 C 176.811 86.806,176.937 86.622,176.937 86.455 C 176.937 86.288,177.135 86.045,177.377 85.915 C 177.619 85.786,177.817 85.576,177.817 85.449 C 177.817 85.182,178.213 85.080,179.621 84.986 C 180.865 84.903,180.859 84.908,180.950 83.654 C 181.020 82.687,181.053 82.624,181.573 82.469 C 181.919 82.367,182.216 82.111,182.375 81.778 C 182.514 81.488,182.694 81.112,182.775 80.944 C 183.332 79.789,182.820 75.079,182.155 75.246 C 181.405 75.436,180.986 75.063,180.986 74.206 C 180.986 73.765,180.865 73.114,180.716 72.759 C 180.568 72.404,180.483 72.020,180.526 71.906 C 180.570 71.792,180.474 71.709,180.312 71.721 C 180.150 71.733,180.035 71.650,180.057 71.536 C 180.081 71.411,179.870 71.329,179.529 71.329 C 179.217 71.329,178.605 71.254,178.169 71.162 C 177.494 71.020,177.695 70.992,179.525 70.973 C 182.777 70.939,183.045 70.693,182.853 67.913 C 182.704 65.759,182.693 65.682,182.539 65.776 C 182.467 65.821,182.246 65.697,182.049 65.499 C 181.851 65.302,181.532 65.141,181.338 65.141 C 181.044 65.141,180.986 65.023,180.986 64.425 C 180.986 63.280,180.762 63.028,179.747 63.028 C 179.166 63.028,178.873 62.954,178.872 62.808 C 178.869 62.012,178.500 61.306,178.138 61.401 C 177.888 61.466,177.803 61.433,177.883 61.303 C 177.972 61.159,175.283 61.106,167.870 61.106 C 160.992 61.106,157.771 61.164,157.846 61.287 M189.151 61.349 C 189.100 61.481,188.863 61.637,188.622 61.698 C 188.382 61.758,188.024 62.082,187.825 62.418 C 187.493 62.981,187.399 63.028,186.613 63.028 C 186.144 63.028,185.710 63.109,185.650 63.207 C 185.589 63.306,185.466 63.341,185.377 63.286 C 185.288 63.231,185.267 63.321,185.331 63.488 C 185.410 63.693,185.381 63.749,185.241 63.663 C 185.095 63.573,185.035 63.770,185.035 64.338 C 185.035 64.944,184.969 65.141,184.763 65.141 C 184.614 65.141,184.283 65.335,184.027 65.572 C 183.772 65.808,183.495 65.960,183.412 65.909 C 183.329 65.858,183.313 66.026,183.378 66.284 C 183.443 66.542,183.404 66.925,183.292 67.135 C 183.144 67.413,183.109 69.351,183.164 74.208 C 183.257 82.411,183.242 82.021,183.446 81.695 C 183.581 81.478,183.629 81.493,183.736 81.783 C 183.807 81.974,183.971 82.195,184.101 82.273 C 184.232 82.352,184.300 82.479,184.252 82.556 C 184.204 82.633,184.361 82.658,184.600 82.612 C 185.009 82.534,185.035 82.576,185.039 83.298 C 185.046 84.638,185.395 84.890,187.386 84.994 L 189.085 85.083 189.112 85.631 C 189.127 85.933,189.136 86.278,189.132 86.398 C 189.128 86.518,189.186 86.578,189.262 86.531 C 189.338 86.484,189.445 86.564,189.501 86.709 C 189.588 86.937,190.719 86.972,198.067 86.972 L 206.532 86.972 206.787 86.361 C 206.927 86.025,207.042 85.590,207.042 85.393 C 207.042 85.084,207.156 85.035,207.879 85.034 C 210.504 85.029,210.915 84.771,210.915 83.129 C 210.915 82.304,211.804 81.074,212.399 81.074 C 212.503 81.074,212.727 80.797,212.896 80.458 C 213.189 79.871,213.234 79.869,213.276 80.441 C 213.286 80.577,213.452 80.722,213.645 80.763 C 213.838 80.804,214.209 80.879,214.468 80.930 C 214.925 81.019,214.943 81.067,215.021 82.457 C 215.159 84.880,215.097 84.749,216.197 84.932 C 216.730 85.020,217.224 85.179,217.295 85.284 C 217.366 85.389,217.425 85.398,217.427 85.304 C 217.428 85.210,217.559 85.318,217.717 85.543 C 217.939 85.860,217.955 85.985,217.786 86.089 C 217.631 86.185,217.624 86.258,217.763 86.344 C 217.870 86.410,217.958 86.381,217.958 86.278 C 217.958 86.175,218.045 86.092,218.153 86.092 C 218.260 86.092,218.307 86.198,218.257 86.328 C 218.192 86.497,218.286 86.542,218.588 86.484 C 218.868 86.431,219.046 86.499,219.119 86.688 C 219.217 86.943,219.991 86.972,226.767 86.972 C 234.899 86.972,234.859 86.976,234.859 86.055 C 234.859 85.732,234.902 85.748,235.249 86.200 C 235.845 86.976,235.797 86.966,239.189 86.969 C 242.054 86.972,242.404 86.939,242.666 86.650 C 243.171 86.093,243.091 61.056,242.586 61.368 C 242.500 61.421,242.430 61.387,242.430 61.292 C 242.430 61.186,241.151 61.124,239.088 61.128 C 236.815 61.134,235.783 61.195,235.860 61.320 C 235.930 61.434,235.859 61.460,235.671 61.388 C 235.505 61.324,235.413 61.344,235.468 61.431 C 235.522 61.519,235.447 61.711,235.301 61.857 C 235.071 62.087,235.035 63.275,235.035 70.586 L 235.035 79.049 233.539 79.049 C 232.595 79.049,232.042 79.119,232.042 79.237 C 232.042 79.348,231.879 79.379,231.646 79.314 C 231.336 79.226,231.307 79.242,231.514 79.387 C 231.659 79.489,231.692 79.573,231.586 79.575 C 231.480 79.576,231.299 79.894,231.183 80.282 L 230.972 80.986 227.898 80.986 L 224.824 80.986 224.824 80.567 C 224.824 80.337,224.706 80.051,224.562 79.931 C 224.418 79.812,224.340 79.649,224.389 79.570 C 224.438 79.491,224.385 79.368,224.271 79.298 C 224.143 79.219,224.112 79.247,224.191 79.374 C 224.351 79.634,224.315 79.631,223.415 79.313 C 223.004 79.168,222.281 79.049,221.809 79.049 L 220.951 79.049 220.951 70.329 C 220.951 62.755,220.916 61.595,220.688 61.508 C 220.543 61.452,220.465 61.341,220.515 61.260 C 220.565 61.180,219.140 61.119,217.349 61.125 C 215.137 61.133,214.128 61.195,214.205 61.320 C 214.276 61.436,214.202 61.459,214.003 61.383 C 213.667 61.253,213.202 61.533,213.207 61.861 C 213.208 61.971,213.286 61.941,213.380 61.796 C 213.474 61.651,213.552 61.616,213.554 61.718 C 213.555 61.821,213.440 62.058,213.298 62.246 C 213.099 62.509,213.038 63.170,213.034 65.097 C 213.028 67.826,212.993 67.879,212.102 66.505 C 211.931 66.242,211.606 65.980,211.380 65.924 C 211.016 65.832,210.965 65.708,210.937 64.832 C 210.919 64.288,210.818 63.739,210.712 63.612 C 210.607 63.484,210.589 63.372,210.674 63.363 C 211.115 63.312,209.820 63.061,209.042 63.046 C 208.219 63.030,207.042 62.366,207.042 61.918 C 207.042 61.697,207.783 62.053,208.016 62.385 C 208.158 62.588,208.275 62.670,208.275 62.566 C 208.275 62.299,207.778 61.897,206.908 61.460 C 205.962 60.984,189.330 60.881,189.151 61.349 M245.070 61.286 C 245.070 61.401,244.868 61.427,244.537 61.355 C 244.244 61.290,244.022 61.304,244.044 61.385 C 244.106 61.611,243.382 62.690,243.255 62.562 C 243.193 62.500,243.144 67.650,243.145 74.006 C 243.147 80.638,243.216 85.563,243.306 85.563 C 243.392 85.563,243.515 85.729,243.579 85.932 C 243.824 86.704,244.913 86.964,247.914 86.968 L 250.670 86.972 250.863 86.417 C 250.992 86.047,251.056 83.293,251.056 78.139 L 251.056 70.415 251.494 70.216 C 251.734 70.106,252.027 69.799,252.145 69.534 C 252.332 69.110,252.485 69.037,253.414 68.932 C 254.601 68.798,254.915 68.531,254.924 67.650 L 254.930 67.077 258.011 67.077 L 261.092 67.077 261.094 67.738 C 261.098 68.661,261.282 68.863,262.214 68.968 L 263.028 69.060 263.028 70.494 C 263.028 72.634,263.517 73.060,265.977 73.062 L 267.077 73.063 267.110 75.924 C 267.127 77.498,267.126 79.008,267.107 79.281 C 267.084 79.618,267.138 79.737,267.277 79.651 C 267.420 79.563,267.449 79.654,267.374 79.953 C 267.273 80.354,268.158 80.986,268.821 80.986 C 268.907 80.986,269.021 81.600,269.074 82.350 C 269.255 84.887,269.160 84.787,271.583 84.973 L 273.063 85.087 273.091 85.633 C 273.106 85.934,273.115 86.278,273.111 86.398 C 273.107 86.518,273.165 86.578,273.241 86.531 C 273.317 86.484,273.424 86.564,273.480 86.709 C 273.585 86.983,290.038 87.125,291.349 86.862 C 291.995 86.733,292.738 86.046,292.815 85.506 C 292.861 85.182,293.014 85.109,293.804 85.029 C 294.879 84.921,295.064 84.723,295.068 83.671 C 295.070 83.047,295.128 82.923,295.414 82.923 C 295.993 82.923,296.659 82.530,296.737 82.144 C 296.778 81.943,296.860 81.473,296.920 81.101 C 297.022 80.467,297.049 80.441,297.340 80.705 C 297.511 80.859,297.932 80.986,298.276 80.986 L 298.901 80.986 299.020 82.086 C 299.086 82.691,299.154 83.424,299.173 83.715 C 299.232 84.655,300.005 84.997,302.134 85.025 C 302.939 85.035,302.949 85.043,303.056 85.710 C 303.271 87.057,302.748 86.990,312.728 86.934 C 322.657 86.878,322.491 86.900,322.712 85.633 C 322.795 85.162,322.872 85.116,323.735 85.029 C 324.810 84.921,324.994 84.723,324.997 83.666 C 325.000 82.929,325.586 82.367,326.052 82.656 C 326.389 82.864,326.841 81.389,326.906 79.864 C 326.975 78.251,326.770 77.465,326.280 77.465 C 326.146 77.465,326.075 77.400,326.124 77.321 C 326.173 77.242,324.759 77.158,322.983 77.133 C 319.201 77.081,319.014 77.136,319.014 78.299 C 319.014 79.037,319.004 79.049,318.408 79.049 C 318.075 79.049,317.753 79.130,317.692 79.228 C 317.631 79.327,317.495 79.354,317.390 79.289 C 317.276 79.219,317.250 79.253,317.325 79.374 C 317.394 79.486,317.362 79.577,317.254 79.577 C 317.145 79.577,317.101 79.649,317.154 79.735 C 317.208 79.822,317.203 80.139,317.143 80.440 L 317.033 80.986 312.684 80.986 L 308.334 80.986 308.109 80.565 C 307.985 80.334,307.679 80.051,307.428 79.937 C 307.062 79.770,307.022 79.698,307.227 79.568 C 307.438 79.435,307.429 79.406,307.174 79.404 C 307.005 79.403,306.866 79.322,306.866 79.225 C 306.866 79.129,306.430 79.049,305.898 79.049 L 304.930 79.049 304.930 77.997 L 304.930 76.945 315.273 76.874 C 327.148 76.792,326.139 76.864,326.538 76.063 C 326.929 75.280,326.983 69.327,326.599 69.407 C 326.543 69.419,326.160 69.332,325.748 69.214 L 325.000 69.001 325.000 67.266 C 325.000 65.800,324.946 65.468,324.654 65.116 C 324.461 64.885,324.305 64.802,324.302 64.929 C 324.295 65.174,323.063 64.062,323.063 63.811 C 323.063 63.729,323.158 63.757,323.275 63.873 C 323.391 63.989,323.566 64.085,323.664 64.085 C 323.762 64.085,323.568 63.850,323.233 63.563 C 322.747 63.149,322.453 63.041,321.787 63.035 C 321.019 63.029,320.951 62.993,320.951 62.596 C 320.951 61.916,320.596 61.280,320.284 61.399 C 320.115 61.464,320.057 61.431,320.131 61.312 C 320.275 61.079,303.742 61.015,303.374 61.247 C 303.245 61.328,303.143 61.465,303.149 61.551 C 303.220 62.648,302.953 63.028,302.112 63.028 C 301.652 63.028,300.991 63.147,300.643 63.292 C 299.889 63.607,299.764 63.620,299.923 63.363 C 300.007 63.227,299.932 63.228,299.669 63.369 C 299.217 63.611,299.179 63.758,299.604 63.624 C 299.835 63.551,299.812 63.615,299.512 63.881 C 299.260 64.104,299.119 64.419,299.132 64.732 C 299.142 65.005,299.093 65.645,299.023 66.153 C 298.895 67.074,298.805 67.165,298.063 67.116 C 297.918 67.106,297.632 67.335,297.427 67.624 L 297.054 68.151 296.933 66.954 C 296.811 65.747,296.478 65.012,296.147 65.217 C 295.610 65.548,295.070 65.110,295.070 64.342 C 295.070 63.356,294.738 63.028,293.737 63.028 C 293.043 63.028,292.958 62.984,292.958 62.627 C 292.958 62.407,292.842 62.061,292.700 61.858 C 292.558 61.656,292.496 61.436,292.562 61.369 C 292.629 61.303,292.547 61.301,292.380 61.365 C 292.212 61.430,292.077 61.399,292.077 61.297 C 292.077 61.170,289.141 61.110,282.763 61.104 L 273.448 61.097 273.256 61.649 C 273.150 61.952,273.063 62.378,273.063 62.596 C 273.063 62.963,272.967 62.998,271.699 63.088 C 269.666 63.233,269.067 63.391,269.274 63.726 C 269.324 63.807,269.249 64.138,269.108 64.462 L 268.852 65.053 268.817 64.525 C 268.798 64.234,268.786 63.897,268.791 63.776 C 268.795 63.655,268.724 63.556,268.632 63.556 C 268.540 63.556,268.504 63.494,268.551 63.418 C 268.598 63.342,268.503 63.264,268.341 63.246 C 266.988 63.091,266.720 62.980,266.608 62.525 C 266.545 62.269,266.349 61.933,266.172 61.778 C 265.996 61.623,265.904 61.444,265.967 61.380 C 266.031 61.316,265.841 61.312,265.545 61.372 C 265.223 61.436,264.958 61.399,264.884 61.280 C 264.796 61.137,262.880 61.086,258.097 61.098 C 251.069 61.116,250.895 61.136,251.167 61.906 C 251.248 62.133,251.227 62.181,251.099 62.060 C 250.998 61.963,250.886 61.725,250.851 61.532 C 250.778 61.128,245.070 60.885,245.070 61.286 M188.562 62.495 C 187.862 63.149,187.564 63.187,187.968 62.571 C 188.242 62.152,188.900 61.749,189.065 61.899 C 189.102 61.933,188.876 62.201,188.562 62.495 M353.777 63.812 C 353.540 64.050,353.348 64.347,353.351 64.473 C 353.355 64.598,353.462 64.511,353.591 64.280 C 353.719 64.049,354.013 63.754,354.245 63.626 C 354.476 63.498,354.563 63.390,354.437 63.387 C 354.312 63.383,354.015 63.575,353.777 63.812 M93.913 64.000 C 94.100 64.141,94.217 64.292,94.175 64.335 C 94.132 64.378,93.900 64.261,93.659 64.076 C 93.419 63.891,93.301 63.741,93.398 63.742 C 93.495 63.743,93.727 63.859,93.913 64.000 M154.513 64.513 C 153.767 65.258,153.633 65.298,153.911 64.689 C 154.095 64.283,154.924 63.671,155.079 63.824 C 155.113 63.858,154.858 64.168,154.513 64.513 M85.035 67.606 C 85.035 67.896,85.123 68.134,85.230 68.134 C 85.337 68.134,85.378 68.257,85.320 68.407 C 85.260 68.564,85.290 68.634,85.389 68.573 C 85.485 68.514,85.563 68.539,85.563 68.629 C 85.563 68.719,86.039 68.846,86.620 68.912 C 87.201 68.978,87.676 69.093,87.676 69.169 C 87.676 69.245,87.876 69.414,88.121 69.545 C 88.366 69.676,88.616 69.986,88.676 70.235 C 88.737 70.483,88.834 70.726,88.892 70.775 C 89.143 70.986,89.471 71.735,90.527 74.514 C 90.811 75.261,90.446 78.419,89.952 79.489 C 89.534 80.397,89.134 80.631,87.957 80.659 C 87.367 80.674,86.587 80.696,86.224 80.709 C 85.860 80.721,85.561 80.650,85.558 80.551 C 85.555 80.451,85.472 80.508,85.373 80.678 C 85.214 80.952,84.867 80.986,82.224 80.986 C 79.579 80.986,79.161 81.027,78.404 81.360 C 77.768 81.640,77.164 81.740,76.016 81.757 L 74.479 81.778 73.683 80.986 C 72.065 79.377,71.784 78.132,72.547 75.952 C 72.789 75.259,72.945 74.250,73.013 72.931 L 73.116 70.951 73.662 70.945 C 74.397 70.938,74.823 70.578,74.827 69.963 C 74.830 69.250,74.987 69.083,75.792 68.936 C 76.743 68.761,76.937 68.562,76.937 67.760 L 76.937 67.077 80.986 67.077 L 85.035 67.077 85.035 67.606 M173.114 67.803 C 173.236 68.708,173.370 68.842,174.274 68.963 C 174.993 69.059,175.000 69.068,175.000 69.794 C 175.000 70.198,175.095 70.623,175.211 70.739 C 175.376 70.904,174.026 70.951,169.137 70.951 L 162.852 70.951 162.852 70.550 C 162.852 70.329,162.736 69.983,162.594 69.781 C 162.452 69.578,162.366 69.382,162.403 69.345 C 162.440 69.308,162.182 69.257,161.831 69.231 C 160.955 69.167,160.653 68.838,161.469 68.838 C 162.193 68.838,162.582 68.479,162.758 67.650 L 162.880 67.077 167.949 67.077 L 173.017 67.077 173.114 67.803 M201.245 67.386 C 201.255 67.652,201.280 67.646,201.424 67.342 C 201.553 67.070,201.570 67.131,201.500 67.606 C 201.443 67.991,201.466 68.132,201.563 67.983 C 201.755 67.684,202.020 68.033,201.832 68.337 C 201.758 68.457,201.783 68.493,201.894 68.425 C 201.997 68.361,202.451 68.467,202.904 68.661 C 203.356 68.855,203.988 69.014,204.307 69.014 C 205.094 69.014,205.101 69.056,205.101 74.032 C 205.101 79.216,205.136 79.049,204.048 79.049 C 203.209 79.049,202.880 79.303,202.972 79.880 C 202.990 79.998,202.845 80.195,202.647 80.319 C 202.450 80.442,202.289 80.642,202.289 80.764 C 202.289 80.886,202.210 80.986,202.113 80.986 C 201.767 80.986,201.945 80.481,202.421 80.113 C 202.820 79.805,202.844 79.749,202.555 79.792 C 202.363 79.822,202.046 80.099,201.851 80.409 L 201.496 80.972 197.843 80.979 C 194.750 80.985,194.190 80.946,194.190 80.728 C 194.190 80.586,193.894 80.270,193.533 80.024 C 193.172 79.778,192.993 79.575,193.137 79.571 C 193.761 79.556,192.448 79.061,191.769 79.056 L 191.021 79.049 191.021 74.032 L 191.021 69.014 191.711 69.014 C 192.536 69.014,192.958 68.873,192.958 68.598 C 192.958 68.487,193.201 68.288,193.498 68.157 C 193.795 68.025,194.110 67.729,194.198 67.498 L 194.357 67.077 197.795 67.077 C 200.947 67.077,201.233 67.103,201.245 67.386 M287.073 67.508 C 287.132 67.744,287.129 68.021,287.066 68.124 C 287.003 68.226,287.043 68.310,287.156 68.310 C 287.269 68.310,287.318 68.424,287.265 68.563 C 287.191 68.755,287.395 68.844,288.126 68.935 L 289.085 69.055 289.105 69.871 C 289.117 70.319,289.117 70.746,289.105 70.819 C 289.067 71.064,296.791 70.976,296.890 70.731 C 296.939 70.610,296.973 72.095,296.965 74.032 C 296.957 75.968,296.917 77.276,296.876 76.937 C 296.836 76.599,296.723 76.226,296.625 76.109 C 296.528 75.992,296.496 75.818,296.555 75.724 C 296.613 75.630,296.568 75.495,296.455 75.425 C 296.326 75.346,296.296 75.374,296.374 75.501 C 296.443 75.613,296.413 75.704,296.308 75.704 C 296.202 75.704,296.072 75.592,296.020 75.454 C 295.922 75.199,295.453 75.152,292.870 75.139 C 290.666 75.128,289.797 75.199,289.838 75.389 C 289.859 75.490,289.767 75.612,289.632 75.661 C 289.468 75.721,289.434 75.675,289.527 75.524 C 289.619 75.375,289.597 75.341,289.463 75.424 C 289.344 75.497,289.302 75.747,289.362 76.023 C 289.444 76.400,289.425 76.442,289.268 76.232 C 289.108 76.019,289.077 76.070,289.104 76.496 C 289.122 76.787,289.126 77.480,289.111 78.037 L 289.085 79.049 288.424 79.055 C 287.712 79.061,287.163 79.365,287.274 79.693 C 287.312 79.806,287.259 79.949,287.157 80.012 C 287.055 80.075,286.972 80.320,286.972 80.556 L 286.972 80.986 282.835 80.986 C 278.904 80.986,278.697 80.969,278.697 80.655 C 278.697 80.474,278.575 80.223,278.425 80.099 C 278.275 79.975,278.186 79.787,278.226 79.681 C 278.270 79.567,278.047 79.484,277.672 79.475 C 277.327 79.467,277.013 79.368,276.976 79.255 C 276.935 79.132,276.524 79.049,275.954 79.049 L 275.000 79.049 275.000 74.058 L 275.000 69.066 276.412 68.957 C 278.041 68.832,278.613 68.516,278.779 67.650 L 278.889 67.077 282.927 67.077 L 286.965 67.077 287.073 67.508 M315.146 67.532 C 315.242 67.783,315.271 68.065,315.213 68.160 C 315.023 68.467,315.730 68.819,316.783 68.942 C 317.616 69.040,317.836 69.135,317.955 69.448 C 318.036 69.660,318.307 69.967,318.558 70.132 C 319.756 70.917,319.482 70.951,311.972 70.951 L 304.930 70.951 304.930 70.008 L 304.930 69.066 306.259 68.953 C 306.990 68.892,307.762 68.744,307.975 68.626 C 308.188 68.508,308.422 68.428,308.495 68.449 C 308.567 68.469,308.616 68.426,308.603 68.354 C 308.590 68.281,308.640 67.964,308.713 67.650 L 308.847 67.077 311.910 67.077 L 314.974 67.077 315.146 67.532 M371.065 67.347 C 371.122 67.495,371.181 67.871,371.196 68.183 C 371.223 68.722,371.268 68.758,372.126 68.904 C 373.019 69.056,373.494 69.693,373.140 70.265 C 373.087 70.351,373.131 70.423,373.239 70.423 C 373.348 70.423,373.393 70.493,373.340 70.579 C 373.228 70.760,373.817 70.945,374.516 70.948 L 375.000 70.951 375.000 74.032 C 375.000 77.477,375.139 77.122,373.768 77.182 C 373.442 77.196,373.342 77.285,373.383 77.526 C 373.421 77.746,373.369 77.809,373.224 77.719 C 373.094 77.639,373.054 77.660,373.123 77.772 C 373.437 78.279,373.030 79.049,372.447 79.049 C 372.132 79.049,371.776 79.167,371.657 79.311 C 371.537 79.456,371.369 79.530,371.283 79.477 C 371.197 79.424,371.140 79.524,371.155 79.699 C 371.170 79.874,371.170 80.235,371.155 80.502 L 371.127 80.986 366.989 80.986 C 363.175 80.986,362.850 80.962,362.830 80.678 C 362.739 79.439,362.703 79.369,362.103 79.285 C 361.885 79.255,361.351 79.180,360.915 79.119 C 360.037 78.995,358.811 78.033,359.209 77.780 C 359.369 77.678,359.366 77.646,359.199 77.644 C 359.030 77.641,358.979 76.785,358.979 73.957 L 358.979 70.274 359.522 69.731 C 359.820 69.432,360.150 69.240,360.253 69.304 C 360.360 69.370,360.391 69.338,360.324 69.230 C 360.248 69.107,360.563 68.997,361.221 68.917 C 362.255 68.792,362.864 68.576,362.830 68.349 C 362.819 68.279,362.820 67.964,362.831 67.650 L 362.852 67.077 366.907 67.077 C 370.384 67.077,370.976 67.116,371.065 67.347 M352.905 67.782 C 352.845 67.879,352.716 67.958,352.618 67.958 C 352.356 67.958,352.001 68.357,351.856 68.815 C 351.786 69.036,351.685 69.174,351.633 69.121 C 351.451 68.939,351.963 68.000,352.345 67.815 C 352.844 67.574,353.041 67.562,352.905 67.782 M172.549 80.471 C 171.925 81.041,171.673 81.058,172.017 80.507 C 172.224 80.176,172.900 79.768,173.053 79.881 C 173.096 79.913,172.869 80.179,172.549 80.471 M47.887 81.147 C 47.541 81.211,47.290 81.355,47.315 81.476 C 47.339 81.594,47.280 81.690,47.183 81.690 C 47.086 81.690,47.007 82.007,47.007 82.394 C 47.007 83.097,46.668 83.285,45.712 83.113 C 45.166 83.015,45.087 83.504,45.086 86.992 C 45.085 89.158,45.149 90.465,45.252 90.402 C 45.343 90.345,45.374 90.415,45.319 90.558 C 45.253 90.731,45.356 90.843,45.629 90.895 C 45.854 90.938,45.445 90.987,44.718 91.005 C 41.647 91.079,41.361 91.109,41.194 91.374 C 40.817 91.973,41.127 100.189,41.541 100.574 C 41.732 100.750,41.753 100.742,41.650 100.528 C 41.566 100.354,41.607 100.366,41.769 100.564 C 41.905 100.728,42.168 100.863,42.355 100.863 C 42.541 100.863,42.971 100.902,43.310 100.948 C 43.649 100.995,44.614 101.039,45.455 101.045 L 46.983 101.056 46.968 101.600 C 46.959 101.925,46.822 102.225,46.628 102.347 C 46.449 102.458,46.303 102.620,46.303 102.707 C 46.303 102.865,45.621 103.521,45.456 103.521 C 45.408 103.521,45.499 103.376,45.659 103.199 C 45.820 103.022,45.951 102.791,45.951 102.686 C 45.951 102.580,46.169 102.332,46.435 102.133 C 46.769 101.883,46.832 101.770,46.638 101.766 C 46.077 101.755,45.149 103.289,45.344 103.904 C 45.422 104.149,45.396 104.230,45.265 104.149 C 45.133 104.067,45.070 104.313,45.070 104.919 C 45.070 105.409,45.142 105.810,45.230 105.810 C 45.318 105.810,45.350 105.959,45.303 106.142 C 45.255 106.325,45.314 106.535,45.434 106.609 C 45.588 106.704,45.610 106.671,45.508 106.497 C 45.422 106.351,45.506 106.376,45.714 106.558 C 45.908 106.728,46.278 106.866,46.537 106.866 C 46.946 106.866,47.009 106.940,47.024 107.438 C 47.034 107.753,47.054 108.209,47.068 108.451 L 47.095 108.891 51.496 108.882 C 56.887 108.871,56.667 108.916,56.814 107.802 C 56.940 106.853,57.042 106.845,57.042 107.784 C 57.042 109.021,56.994 109.009,61.840 108.946 C 66.083 108.892,67.122 108.730,66.600 108.208 C 66.540 108.148,66.566 108.099,66.658 108.099 C 66.920 108.099,66.982 107.349,66.986 104.093 L 66.989 101.056 67.743 101.056 C 68.158 101.056,68.766 100.944,69.093 100.807 C 69.421 100.670,69.748 100.611,69.820 100.675 C 69.892 100.740,69.886 100.680,69.806 100.542 C 69.699 100.359,69.735 100.321,69.941 100.400 C 70.307 100.540,70.638 100.131,70.484 99.729 C 70.394 99.494,70.423 99.451,70.599 99.560 C 70.774 99.668,70.804 99.625,70.714 99.390 C 70.647 99.217,70.675 98.976,70.775 98.855 C 70.892 98.714,70.941 97.283,70.910 94.872 L 70.863 91.109 70.335 91.081 C 70.044 91.066,69.637 91.046,69.430 91.037 C 69.081 91.022,68.886 90.586,68.756 89.525 C 68.744 89.428,68.639 89.368,68.522 89.393 C 68.405 89.417,68.310 89.354,68.310 89.253 C 68.310 89.152,68.211 89.082,68.090 89.098 C 67.383 89.189,66.481 89.067,66.725 88.912 C 67.135 88.654,67.088 83.627,66.677 83.627 C 66.595 83.627,66.576 83.550,66.634 83.456 C 66.735 83.293,66.092 83.042,65.746 83.109 C 65.115 83.230,64.965 83.084,64.962 82.350 C 64.957 81.059,65.024 81.083,61.291 81.030 C 57.196 80.971,57.042 81.014,57.042 82.214 C 57.042 83.135,56.888 83.251,55.841 83.109 C 55.506 83.063,55.088 83.456,55.119 83.786 C 55.134 83.940,55.126 84.305,55.102 84.595 C 55.062 85.070,54.735 82.924,54.733 82.174 C 54.732 82.005,54.657 81.866,54.567 81.866 C 54.476 81.866,54.421 81.777,54.445 81.668 C 54.470 81.559,54.379 81.430,54.245 81.381 C 54.096 81.327,54.048 81.370,54.122 81.489 C 54.199 81.614,54.145 81.648,53.971 81.582 C 53.822 81.524,53.736 81.417,53.781 81.344 C 53.973 81.034,49.330 80.879,47.887 81.147 M56.558 89.578 C 56.864 89.864,57.042 90.213,57.042 90.526 L 57.042 91.021 59.365 91.021 C 61.260 91.021,61.634 91.062,61.396 91.241 C 61.139 91.435,61.109 91.897,61.142 95.158 L 61.180 98.856 62.236 98.958 C 62.882 99.021,62.120 99.072,60.274 99.090 C 56.851 99.124,57.046 99.028,57.037 100.675 C 57.032 101.564,57.005 101.638,56.786 101.350 C 56.624 101.135,56.346 101.038,55.956 101.059 C 54.960 101.115,54.930 101.094,54.930 100.367 C 54.930 99.121,54.927 99.120,52.842 99.120 L 50.968 99.120 51.020 96.039 L 51.072 92.958 51.747 92.958 C 52.552 92.958,52.763 92.742,52.920 91.761 L 53.038 91.021 53.984 91.021 L 54.930 91.021 54.930 89.995 L 54.930 88.969 55.502 89.047 C 55.816 89.090,56.292 89.329,56.558 89.578 " stroke="none" fill="#14649c" fill-rule="evenodd"></path></g></svg>