<?xml version="1.0" standalone="no"?>
<!DOCTYPE svg PUBLIC "-//W3C//DTD SVG 20010904//EN"
 "http://www.w3.org/TR/2001/REC-SVG-20010904/DTD/svg10.dtd">
<svg version="1.0" xmlns="http://www.w3.org/2000/svg"
 width="200.000000pt" height="88.000000pt" viewBox="0 0 200.000000 88.000000"
 preserveAspectRatio="xMidYMid meet">
<metadata>
Created by potrace 1.16, written by Peter Selinger 2001-2019
</metadata>
<g transform="translate(0.000000,88.000000) scale(0.100000,-0.100000)"
fill="#000000" stroke="none">
<path d="M235 576 c-32 -48 22 -104 74 -76 18 9 22 8 28 -7 36 -99 126 -97
140 4 7 52 -14 73 -72 73 -24 0 -47 -5 -51 -11 -4 -8 -12 -2 -21 15 -19 36
-75 37 -98 2z"/>
<path d="M660 585 c0 -10 -10 -15 -30 -15 -28 0 -30 -2 -30 -40 0 -44 -25 -66
-60 -55 -16 5 -20 15 -20 51 0 32 -4 44 -15 44 -20 0 -21 -92 -1 -109 7 -6 38
-10 70 -10 l56 2 0 43 c0 32 4 44 15 44 11 0 15 -11 15 -39 0 -39 11 -51 48
-51 24 0 38 12 46 38 6 16 3 22 -8 22 -9 0 -16 -7 -16 -16 0 -10 -7 -14 -22
-12 -17 2 -24 11 -26 31 -3 25 -1 27 32 27 25 0 36 4 36 15 0 10 -11 15 -35
15 -24 0 -35 5 -35 15 0 8 -4 15 -10 15 -5 0 -10 -7 -10 -15z"/>
<path d="M1660 585 c0 -8 -4 -15 -10 -15 -5 0 -10 -7 -10 -15 0 -8 5 -15 10
-15 6 0 10 -18 10 -39 0 -26 5 -41 16 -45 29 -11 63 -6 72 11 9 16 11 16 27 0
19 -20 95 -23 113 -5 16 16 16 80 0 96 -7 7 -31 12 -54 12 -44 0 -74 -19 -74
-46 0 -8 -7 -14 -15 -14 -8 0 -15 -7 -15 -15 0 -8 -9 -15 -20 -15 -16 0 -20 7
-20 30 0 27 3 30 30 30 20 0 30 5 30 15 0 10 -10 15 -30 15 -20 0 -30 5 -30
15 0 8 -7 15 -15 15 -8 0 -15 -7 -15 -15z"/>
<path d="M932 558 c-7 -7 -12 -29 -12 -50 0 -42 19 -58 70 -58 51 0 70 16 70
58 0 50 -14 62 -70 62 -25 0 -51 -5 -58 -12z"/>
<path d="M1220 509 c0 -46 3 -59 15 -59 11 0 15 11 15 38 0 38 14 62 35 62 18
0 55 -36 55 -53 0 -28 30 -47 74 -47 42 0 66 13 66 37 0 7 -7 13 -15 13 -8 0
-15 -4 -15 -9 0 -14 -37 -23 -60 -16 -14 4 -20 15 -20 35 0 35 29 47 71 30 34
-15 48 -7 29 15 -18 21 -106 21 -118 -1 -8 -15 -10 -15 -15 0 -5 12 -19 16
-62 15 l-55 -2 0 -58z"/>
</g>
</svg>
